<?xml version="1.0" encoding="UTF-8"?>
<svg id="Layer_1" xmlns="http://www.w3.org/2000/svg" xmlns:serif="http://www.serif.com/" version="1.1" viewBox="0 0 842.12 218.94">
  <!-- Generator: Adobe Illustrator 30.3.0, SVG Export Plug-In . SVG Version: 2.1.3 Build 182)  -->
  <defs>
    <style>
      .st0 {
        fill: none;
      }

      .st1 {
        fill: #151515;
      }

      .st1, .st2 {
        fill-rule: evenodd;
      }

      .st2 {
        fill: #fdfbf9;
      }
    </style>
  </defs>
  <g id="Artboard1">
    <rect class="st0" y="27.44" width="841.89" height="164.06"/>
    <path class="st1" d="M209.12,111.06c0-22.93,26.58-41.52,59.36-41.52,25.29,0,46.89,11.07,55.44,26.65,1.7,3.12,1.63,6.89-.19,9.94-1.81,3.05-5.1,4.92-8.64,4.92h-62.76c-3.49,0-6.59,2.22-7.72,5.51-1.13,3.3-.04,6.95,2.72,9.09,1.78,1.32,3.84,2.64,6.2,3.94,9.06,5.01,31.23,8.83,60.37-.33,1.19-.37,2.48.17,3.04,1.28.57,1.11.25,2.47-.75,3.22-63.62,48.04-107.07-1.08-107.07-22.71h0ZM570.75,111.06c0-22.93,26.57-41.52,59.36-41.52,25.29,0,46.89,11.07,55.44,26.65,1.7,3.12,1.63,6.89-.19,9.94-1.81,3.05-5.1,4.92-8.64,4.92h-62.76c-3.49,0-6.59,2.22-7.72,5.51-1.13,3.3-.04,6.95,2.72,9.09,1.78,1.32,3.84,2.64,6.2,3.94,9.06,5.01,31.23,8.83,60.37-.33,1.19-.37,2.48.17,3.04,1.28.57,1.11.25,2.47-.75,3.22-63.62,48.04-107.07-1.08-107.07-22.71h0ZM346.11,83.81c-3.56-2.17-8.16-1.52-10.98,1.55s-3.08,7.7-.62,11.07c9.64,13.14,15.36,30.54,15.13,55.83,0,.93.67,1.73,1.59,1.88.92.15,1.81-.38,2.11-1.26,13.92-38.96,45.14-75.16,73.39-71.38,1.24.16,2.4-.62,2.73-1.83.33-1.2-.27-2.47-1.42-2.96-23.55-10.13-54.91-1.31-67.6,13.98-.81,1.03-2.28,1.24-3.34.48-3.86-2.74-7.51-5.18-11.01-7.35h.02ZM707.73,83.81c-3.56-2.17-8.16-1.52-10.98,1.55s-3.08,7.7-.62,11.07c9.64,13.14,15.36,30.54,15.13,55.83,0,.93.67,1.73,1.59,1.88.92.15,1.81-.38,2.11-1.26,13.92-38.96,45.14-75.16,73.39-71.38,1.24.16,2.4-.62,2.73-1.83.33-1.2-.27-2.47-1.42-2.96-23.55-10.13-54.91-1.31-67.6,13.98-.81,1.03-2.28,1.24-3.34.48-3.86-2.74-7.51-5.18-11.01-7.35h.02,0ZM129.22,127.02c-2.14-.36-4.09-1.51-5.45-3.25-28.3-37.73-56.83,5.06-68.58,29.02-.48,1.05-1.66,1.59-2.77,1.29s-1.84-1.37-1.72-2.52c6.66-61.57,47.94-98.58,75.68-83.35,1.1.61,2.31.93,3.52.97,1.22-.04,2.42-.37,3.52-.97,27.74-15.23,69.02,21.78,75.68,83.35.12,1.15-.61,2.22-1.72,2.52-1.11.31-2.29-.24-2.77-1.29-11.75-23.96-40.27-66.75-68.58-29.02-1.35,1.74-3.3,2.89-5.45,3.25-.07.01-.2.03-.2.03,0,0-.32.06-.49.06s-.49-.06-.49-.06c0,0-.13-.02-.2-.03h.02ZM490.85,127.02c-2.14-.36-4.09-1.51-5.45-3.25-28.3-37.73-56.83,5.06-68.58,29.02-.49,1.05-1.66,1.59-2.77,1.29-1.11-.31-1.84-1.37-1.72-2.52,6.66-61.57,47.94-98.58,75.68-83.35,1.1.61,2.31.93,3.52.97,1.22-.04,2.43-.37,3.52-.97,27.74-15.23,69.02,21.78,75.68,83.35.12,1.15-.61,2.22-1.72,2.52-1.11.31-2.29-.24-2.77-1.29-11.75-23.96-40.27-66.75-68.58-29.02-1.35,1.74-3.3,2.89-5.45,3.25-.07.01-.2.03-.2.03,0,0-.32.06-.49.06s-.49-.06-.49-.06c0,0-.13-.02-.2-.03h.02Z"/>
  </g>
  <g id="Artboard2">
    <rect class="st0" y="246.96" width="841.89" height="202.92"/>
    <path class="st2" d="M209.13,350.01c0-22.93,26.58-41.52,59.36-41.52,25.29,0,46.89,11.07,55.44,26.65,1.7,3.12,1.63,6.89-.19,9.94-1.81,3.05-5.1,4.92-8.64,4.92h-62.76c-3.49,0-6.59,2.22-7.72,5.51-1.13,3.3-.04,6.95,2.72,9.09,1.78,1.32,3.84,2.64,6.2,3.94,9.06,5.01,31.23,8.83,60.37-.33,1.19-.37,2.48.17,3.04,1.28.57,1.11.25,2.47-.75,3.22-63.62,48.04-107.07-1.08-107.07-22.71h0ZM570.75,350.01c0-22.93,26.57-41.52,59.36-41.52,25.29,0,46.89,11.07,55.44,26.65,1.7,3.12,1.63,6.89-.19,9.94-1.81,3.05-5.1,4.92-8.64,4.92h-62.76c-3.49,0-6.59,2.22-7.72,5.51-1.13,3.3-.04,6.95,2.72,9.09,1.78,1.32,3.84,2.64,6.2,3.94,9.06,5.01,31.23,8.83,60.37-.33,1.19-.37,2.48.17,3.04,1.28.57,1.11.25,2.47-.75,3.22-63.62,48.04-107.07-1.08-107.07-22.71h0ZM346.11,322.75c-3.56-2.17-8.16-1.52-10.98,1.55s-3.08,7.7-.62,11.07c9.64,13.14,15.36,30.54,15.13,55.83,0,.93.67,1.73,1.59,1.88.92.15,1.81-.38,2.11-1.26,13.92-38.96,45.14-75.16,73.39-71.38,1.24.16,2.4-.62,2.73-1.83.33-1.2-.27-2.47-1.42-2.96-23.55-10.13-54.91-1.31-67.6,13.98-.81,1.03-2.28,1.24-3.34.48-3.86-2.74-7.51-5.18-11.01-7.35h.02ZM707.74,322.75c-3.56-2.17-8.16-1.52-10.98,1.55s-3.08,7.7-.62,11.07c9.64,13.14,15.36,30.54,15.13,55.83,0,.93.67,1.73,1.59,1.88.92.15,1.81-.38,2.11-1.26,13.92-38.96,45.14-75.16,73.39-71.38,1.24.16,2.4-.62,2.73-1.83.33-1.2-.27-2.47-1.42-2.96-23.55-10.13-54.91-1.31-67.6,13.98-.81,1.03-2.28,1.24-3.34.48-3.86-2.74-7.51-5.18-11.01-7.35h.02,0ZM129.22,365.97c-2.14-.36-4.09-1.51-5.45-3.25-28.3-37.73-56.83,5.06-68.58,29.02-.48,1.05-1.66,1.59-2.77,1.29s-1.84-1.37-1.72-2.52c6.66-61.57,47.94-98.58,75.68-83.35,1.1.61,2.31.93,3.52.97,1.22-.04,2.42-.37,3.52-.97,27.74-15.23,69.02,21.78,75.68,83.35.12,1.15-.61,2.22-1.72,2.52-1.11.31-2.29-.24-2.77-1.29-11.75-23.96-40.27-66.75-68.58-29.02-1.35,1.74-3.3,2.89-5.45,3.25-.07.01-.2.03-.2.03,0,0-.32.06-.49.06s-.49-.06-.49-.06c0,0-.13-.02-.2-.03h.02ZM490.85,365.97c-2.14-.36-4.09-1.51-5.45-3.25-28.3-37.73-56.83,5.06-68.58,29.02-.49,1.05-1.66,1.59-2.77,1.29-1.11-.31-1.84-1.37-1.72-2.52,6.66-61.57,47.94-98.58,75.68-83.35,1.1.61,2.31.93,3.52.97,1.22-.04,2.43-.37,3.52-.97,27.74-15.23,69.02,21.78,75.68,83.35.12,1.15-.61,2.22-1.72,2.52-1.11.31-2.29-.24-2.77-1.29-11.75-23.96-40.27-66.75-68.58-29.02-1.35,1.74-3.3,2.89-5.45,3.25-.07.01-.2.03-.2.03,0,0-.32.06-.49.06s-.49-.06-.49-.06c0,0-.13-.02-.2-.03h.02Z"/>
  </g>
  <g id="Artboard3">
    <rect class="st0" y="491.94" width="381.37" height="198.25"/>
    <g>
      <path class="st1" d="M137.66,554.2c0-17.32,20.07-31.36,44.83-31.36,19.1,0,35.42,8.36,41.87,20.13,1.28,2.35,1.23,5.21-.14,7.51s-3.85,3.72-6.53,3.72h-47.41c-2.63,0-4.97,1.67-5.83,4.17-.85,2.49-.03,5.25,2.05,6.86,1.35,1,2.9,1.99,4.68,2.98,6.84,3.79,23.59,6.67,45.6-.25.9-.28,1.87.13,2.3.97.43.84.19,1.87-.57,2.43-48.06,36.29-80.87-.81-80.87-17.16h.02ZM241.12,533.61c-2.69-1.64-6.16-1.15-8.29,1.17s-2.33,5.82-.47,8.36c7.28,9.93,11.6,23.07,11.43,42.17,0,.7.51,1.3,1.2,1.42s1.37-.29,1.6-.95c10.52-29.43,34.1-56.77,55.44-53.91.94.12,1.81-.47,2.06-1.38s-.21-1.86-1.07-2.24c-17.79-7.65-41.47-.99-51.06,10.56-.61.78-1.72.93-2.53.36-2.91-2.07-5.67-3.91-8.32-5.55h.01ZM77.3,566.25c-1.62-.27-3.09-1.14-4.11-2.46-21.38-28.5-42.92,3.82-51.8,21.92-.37.79-1.25,1.2-2.09.97s-1.39-1.04-1.3-1.91c5.03-46.5,36.21-74.46,57.16-62.95.83.46,1.74.7,2.66.73.92-.03,1.83-.28,2.66-.73,20.95-11.51,52.13,16.45,57.16,62.95.09.87-.46,1.67-1.3,1.91-.84.23-1.73-.18-2.09-.97-8.87-18.1-30.42-50.42-51.8-21.92-1.02,1.31-2.49,2.18-4.11,2.46-.05,0-.15.02-.15.02,0,0-.24.04-.37.04s-.37-.04-.37-.04c0,0-.1-.02-.15-.02Z"/>
      <path class="st1" d="M196.87,631.36c0-17.32,20.07-31.36,44.83-31.36,19.1,0,35.42,8.36,41.87,20.13,1.28,2.35,1.23,5.21-.14,7.51-1.37,2.3-3.85,3.72-6.53,3.72h-47.41c-2.63,0-4.97,1.67-5.83,4.17-.85,2.49-.03,5.25,2.05,6.86,1.35,1,2.9,1.99,4.68,2.98,6.84,3.79,23.59,6.67,45.6-.25.9-.28,1.87.13,2.3.97s.19,1.87-.57,2.43c-48.06,36.29-80.87-.81-80.87-17.16h.02ZM300.34,610.77c-2.69-1.64-6.16-1.15-8.29,1.17s-2.33,5.82-.47,8.36c7.28,9.93,11.6,23.07,11.43,42.17,0,.7.51,1.3,1.2,1.42s1.37-.29,1.6-.95c10.52-29.43,34.1-56.77,55.44-53.91.94.12,1.81-.47,2.06-1.38s-.21-1.86-1.07-2.24c-17.79-7.65-41.47-.99-51.06,10.56-.61.78-1.72.93-2.53.36-2.91-2.07-5.67-3.91-8.32-5.55h.01ZM136.52,643.42c-1.62-.27-3.09-1.14-4.11-2.46-21.38-28.5-42.92,3.82-51.8,21.92-.37.79-1.25,1.2-2.09.97s-1.39-1.04-1.3-1.91c5.03-46.5,36.21-74.46,57.16-62.95.83.46,1.74.7,2.66.73.92-.03,1.83-.28,2.66-.73,20.95-11.51,52.13,16.45,57.16,62.95.09.87-.46,1.67-1.3,1.91-.84.23-1.73-.18-2.09-.97-8.87-18.1-30.42-50.42-51.8-21.92-1.02,1.31-2.49,2.18-4.11,2.46-.05,0-.15.02-.15.02,0,0-.24.04-.37.04s-.37-.04-.37-.04c0,0-.1-.02-.15-.02h0Z"/>
    </g>
  </g>
  <g id="Artboard5">
    <rect class="st0" x="460.75" y="486.73" width="381.37" height="197.21"/>
    <g>
      <path class="st2" d="M598.41,548.99c0-17.32,20.07-31.36,44.83-31.36,19.1,0,35.42,8.36,41.87,20.13,1.28,2.35,1.23,5.21-.14,7.51s-3.85,3.72-6.53,3.72h-47.41c-2.63,0-4.97,1.67-5.83,4.17-.85,2.49-.03,5.25,2.05,6.86,1.35,1,2.9,1.99,4.68,2.98,6.84,3.79,23.59,6.67,45.6-.25.9-.28,1.87.13,2.3.97s.19,1.87-.57,2.43c-48.06,36.29-80.87-.81-80.87-17.16h.02ZM701.87,528.4c-2.69-1.64-6.16-1.15-8.29,1.17s-2.33,5.82-.47,8.36c7.28,9.93,11.6,23.07,11.43,42.17,0,.7.51,1.3,1.2,1.42s1.37-.29,1.6-.95c10.52-29.43,34.1-56.77,55.44-53.91.94.12,1.81-.47,2.06-1.38s-.21-1.86-1.07-2.24c-17.79-7.65-41.47-.99-51.06,10.56-.61.78-1.72.93-2.53.36-2.91-2.07-5.67-3.91-8.32-5.55h.01ZM538.06,561.04c-1.62-.27-3.09-1.14-4.11-2.46-21.38-28.5-42.92,3.82-51.8,21.92-.37.79-1.25,1.2-2.09.97s-1.39-1.04-1.3-1.91c5.03-46.5,36.21-74.46,57.16-62.95.83.46,1.74.7,2.66.73.92-.03,1.83-.28,2.66-.73,20.95-11.51,52.13,16.45,57.16,62.95.09.87-.46,1.67-1.3,1.91-.84.23-1.73-.18-2.09-.97-8.87-18.1-30.42-50.42-51.8-21.92-1.02,1.31-2.49,2.18-4.11,2.46-.05,0-.15.02-.15.02,0,0-.24.04-.37.04s-.37-.04-.37-.04c0,0-.1-.02-.15-.02h0Z"/>
      <path class="st2" d="M657.62,626.15c0-17.32,20.07-31.36,44.83-31.36,19.1,0,35.42,8.36,41.87,20.13,1.28,2.35,1.23,5.21-.14,7.51s-3.85,3.72-6.53,3.72h-47.41c-2.63,0-4.97,1.67-5.83,4.17-.85,2.49-.03,5.25,2.05,6.86,1.35,1,2.9,1.99,4.68,2.98,6.84,3.79,23.59,6.67,45.6-.25.9-.28,1.87.13,2.3.97s.19,1.87-.57,2.43c-48.06,36.29-80.87-.81-80.87-17.16h.02ZM761.09,605.57c-2.69-1.64-6.16-1.15-8.29,1.17s-2.33,5.82-.47,8.36c7.28,9.93,11.6,23.07,11.43,42.17,0,.7.51,1.3,1.2,1.42s1.37-.29,1.6-.95c10.52-29.43,34.1-56.77,55.44-53.91.94.12,1.81-.47,2.06-1.38s-.21-1.86-1.07-2.24c-17.79-7.65-41.47-.99-51.06,10.56-.61.78-1.72.93-2.53.36-2.91-2.07-5.67-3.91-8.32-5.55h.01ZM597.27,638.21c-1.62-.27-3.09-1.14-4.11-2.46-21.38-28.5-42.92,3.82-51.8,21.92-.37.79-1.25,1.2-2.09.97s-1.39-1.04-1.3-1.91c5.03-46.5,36.21-74.46,57.16-62.95.83.46,1.74.7,2.66.73.92-.03,1.83-.28,2.66-.73,20.95-11.51,52.13,16.45,57.16,62.95.09.87-.46,1.67-1.3,1.91-.84.23-1.73-.18-2.09-.97-8.87-18.1-30.42-50.42-51.8-21.92-1.02,1.31-2.49,2.18-4.11,2.46-.05,0-.15.02-.15.02,0,0-.24.04-.37.04s-.37-.04-.37-.04c0,0-.1-.02-.15-.02h0Z"/>
    </g>
  </g>
  <g id="Artboard6">
    <rect class="st0" y="727.13" width="381.37" height="198.25"/>
    <g>
      <path class="st1" d="M191.66,807.73c-.37.24-.84.25-1.22.02-10.29-6.27-22.02-5.93-33.7,9.65-1.22,1.57-2.97,2.6-4.91,2.93l-.18.03s-.29.05-.44.05-.44-.05-.44-.05l-.18-.03c-1.93-.33-3.69-1.36-4.91-2.93-25.5-33.99-51.2,4.55-61.78,26.14-.44.94-1.49,1.44-2.5,1.16-1-.28-1.66-1.24-1.55-2.27,6-55.46,43.19-88.81,68.18-75.09.99.55,2.08.84,3.18.88,1.1-.04,2.19-.33,3.18-.88,17.57-9.65,41.16,3.97,55.71,32.17.11.21.11.47,0,.68s-.32.36-.56.4c-5.94.91-12,3.31-17.89,7.15h.01Z"/>
      <path class="st1" d="M229.53,863.81c-1.93-.33-3.69-1.36-4.91-2.93-25.5-33.99-51.2,4.55-61.78,26.14-.44.94-1.49,1.44-2.5,1.16-1-.28-1.66-1.24-1.55-2.27,6-55.46,43.19-88.81,68.18-75.09.99.55,2.08.84,3.18.88,1.1-.04,2.19-.33,3.18-.88,24.99-13.72,62.18,19.62,68.18,75.09.11,1.04-.55,2-1.55,2.27-1,.28-2.06-.21-2.5-1.16-10.58-21.59-36.28-60.13-61.78-26.14-1.22,1.57-2.97,2.6-4.91,2.93l-.18.03s-.29.05-.44.05-.44-.05-.44-.05l-.18-.03h0Z"/>
    </g>
  </g>
  <g id="Artboard7">
    <rect class="st0" x="460.75" y="727.65" width="381.37" height="197.21"/>
    <g>
      <path class="st2" d="M645.95,807.21c-.37.24-.84.25-1.22.02-10.29-6.27-22.02-5.93-33.7,9.65-1.22,1.57-2.97,2.6-4.91,2.93l-.18.03s-.29.05-.44.05-.44-.05-.44-.05l-.18-.03c-1.93-.33-3.69-1.36-4.91-2.93-25.5-33.99-51.2,4.55-61.78,26.14-.44.94-1.49,1.44-2.5,1.16-1-.28-1.66-1.24-1.55-2.27,6-55.46,43.19-88.81,68.18-75.09.99.55,2.08.84,3.18.88,1.1-.04,2.19-.33,3.18-.88,17.57-9.65,41.16,3.97,55.71,32.17.11.21.11.47,0,.68s-.32.36-.56.4c-5.94.91-12,3.31-17.89,7.15h0Z"/>
      <path class="st2" d="M683.81,863.29c-1.93-.33-3.69-1.36-4.91-2.93-25.5-33.99-51.2,4.55-61.78,26.14-.44.94-1.49,1.44-2.5,1.16-1-.28-1.66-1.24-1.55-2.27,6-55.46,43.19-88.81,68.18-75.09.99.55,2.08.84,3.18.88,1.1-.04,2.19-.33,3.18-.88,24.99-13.72,62.18,19.62,68.18,75.09.11,1.04-.55,2-1.55,2.27-1,.28-2.06-.21-2.5-1.16-10.58-21.59-36.28-60.13-61.78-26.14-1.22,1.57-2.97,2.6-4.91,2.93l-.18.03s-.29.05-.44.05-.44-.05-.44-.05l-.18-.03h0Z"/>
    </g>
  </g>
  <g id="Artboard8">
    <rect class="st0" x="460.75" y="966.64" width="381.37" height="197.21"/>
    <g>
      <path class="st2" d="M645.39,1101.18c-1.93-.33-3.69-1.36-4.91-2.93-25.5-33.99-51.2,4.55-61.78,26.14-.44.94-1.49,1.44-2.5,1.16-1-.28-1.66-1.24-1.55-2.27,6-55.46,43.19-88.81,68.18-75.09.99.55,2.08.84,3.18.88,1.1-.04,2.19-.33,3.18-.88,24.99-13.72,62.18,19.62,68.18,75.09.11,1.04-.55,2-1.55,2.27-1,.28-2.06-.21-2.5-1.16-10.58-21.59-36.28-60.13-61.78-26.14-1.22,1.57-2.97,2.6-4.91,2.93l-.18.03s-.29.05-.44.05-.44-.05-.44-.05l-.18-.03h0Z"/>
      <path class="st2" d="M576.61,1085.12c-.07.16-.24.24-.4.19q-.07-.02,0,0c-1-.28-1.66-1.24-1.55-2.27,6-55.46,43.19-88.81,68.18-75.09.99.55,2.08.84,3.18.88,1.1-.04,2.19-.33,3.18-.88,24.99-13.72,62.18,19.62,68.18,75.09.11,1.04-.55,2-1.55,2.27h-.03c-.15.04-.3-.04-.36-.18-7.3-17.36-17.73-30.63-28.77-38.55-12.8-9.18-26.56-11.5-38.38-6.35-1.44.64-3.09.64-4.53,0-11.83-5.15-25.58-2.83-38.38,6.35-11.03,7.91-21.45,21.17-28.76,38.52v.02h0Z"/>
    </g>
  </g>
  <g id="Artboard9">
    <rect class="st0" y="966.64" width="381.37" height="197.21"/>
    <g>
      <path class="st1" d="M190.07,1101.18c-1.93-.33-3.69-1.36-4.91-2.93-25.5-33.99-51.2,4.55-61.78,26.14-.44.94-1.49,1.44-2.5,1.16-1-.28-1.66-1.24-1.55-2.27,6-55.46,43.19-88.81,68.18-75.09.99.55,2.08.84,3.18.88,1.1-.04,2.19-.33,3.18-.88,24.99-13.72,62.18,19.62,68.18,75.09.11,1.04-.55,2-1.55,2.27-1,.28-2.06-.21-2.5-1.16-10.58-21.59-36.28-60.13-61.78-26.14-1.22,1.57-2.97,2.6-4.91,2.93l-.18.03s-.29.05-.44.05-.44-.05-.44-.05l-.18-.03Z"/>
      <path class="st1" d="M121.28,1085.12c-.07.16-.24.24-.4.19q-.07-.02,0,0c-1-.28-1.66-1.24-1.55-2.27,6-55.46,43.19-88.81,68.18-75.09.99.55,2.08.84,3.18.88,1.1-.04,2.19-.33,3.18-.88,24.99-13.72,62.18,19.62,68.18,75.09.11,1.04-.55,2-1.55,2.27h-.03c-.15.04-.3-.04-.36-.18-7.3-17.36-17.73-30.63-28.77-38.55-12.8-9.18-26.56-11.5-38.38-6.35-1.44.64-3.09.64-4.53,0-11.83-5.15-25.58-2.83-38.38,6.35-11.03,7.91-21.45,21.17-28.76,38.52v.02h-.01Z"/>
    </g>
  </g>
</svg>