<?xml version="1.0" encoding="UTF-8"?>
<svg id="Layer_1" data-name="Layer 1" xmlns="http://www.w3.org/2000/svg" viewBox="0 0 841.89 595.28">
  <defs>
    <style>
      .cls-1 {
        fill: #102e42;
      }

      .cls-2 {
        fill: #a55c3e;
      }

      .cls-3 {
        fill: #572618;
      }

      .cls-4 {
        fill: #303b59;
      }
    </style>
  </defs>
  <g>
    <path d="M208.37,318.47h17v67.28c0,.74-.6,1.33-1.33,1.33h-15.67c-.74,0-1.33-.6-1.33-1.33v-65.95c0-.74.6-1.33,1.33-1.33ZM220.86,350.32h15.97c2.32,0,4.18-.65,5.58-1.95,1.4-1.3,2.1-3.07,2.1-5.32,0-2.46-.7-4.33-2.1-5.63-1.4-1.3-3.26-1.95-5.58-1.95h-15.97v-17h17.82c4.78,0,8.99.97,12.65,2.92,3.65,1.95,6.47,4.76,8.45,8.45,1.98,3.69,2.97,7.92,2.97,12.7s-.99,9.15-2.97,12.9c-1.98,3.76-4.78,6.67-8.4,8.76-3.62,2.08-7.85,3.12-12.7,3.12h-17.82v-17ZM230.9,362.71l17.2-3.79,15.31,26.16c.52.89-.12,2-1.15,2h-18.46c-.51,0-.97-.29-1.19-.74l-11.72-23.63Z"/>
    <path d="M273.34,328.3c-1.88-1.77-2.82-4.13-2.82-7.07s.92-5.29,2.76-7.07c1.84-1.77,4.34-2.66,7.47-2.66s5.41.87,7.22,2.61c1.81,1.74,2.71,4.11,2.71,7.12s-.91,5.29-2.71,7.07-4.21,2.66-7.22,2.66-5.55-.89-7.42-2.66ZM273.19,335.88h14.75c.74,0,1.33.6,1.33,1.33v48.54c0,.74-.6,1.33-1.33,1.33h-14.75c-.74,0-1.33-.6-1.33-1.33v-48.54c0-.74.6-1.33,1.33-1.33Z"/>
    <path d="M298.11,335.88h16.28c.63,0,1.18.45,1.31,1.07l6.13,30.47h1.02l6.13-30.47c.13-.62.67-1.07,1.31-1.07h15.65c.89,0,1.53.86,1.28,1.71l-14.56,48.54c-.17.56-.69.95-1.28.95h-18.9c-.59,0-1.11-.39-1.28-.95l-14.37-48.54c-.25-.85.39-1.71,1.28-1.71Z"/>
    <path d="M362.12,385.64c-3.58-1.77-6.35-4.3-8.29-7.58-1.95-3.28-2.92-7.03-2.92-11.26v-10.65c0-4.23.97-7.99,2.92-11.26,1.94-3.28,4.67-5.8,8.19-7.58,3.51-1.77,7.56-2.66,12.13-2.66s8.72.91,12.24,2.71c3.51,1.81,6.25,4.39,8.19,7.73,1.95,3.35,2.92,7.17,2.92,11.47v8.7c0,.74-.6,1.33-1.33,1.33h-32.26v-10.65h18.12l-2.05,2.25v-4.51c0-1.71-.53-3.07-1.59-4.1-1.06-1.02-2.47-1.54-4.25-1.54s-3.19.5-4.25,1.49c-1.06.99-1.59,2.37-1.59,4.15v15.56c0,1.71.56,3.07,1.69,4.1,1.12,1.02,2.64,1.54,4.56,1.54,1.71,0,3.04-.34,3.99-1.02.95-.68,1.43-1.6,1.43-2.76v-.41h17.51v.31c0,3.41-.97,6.44-2.92,9.06-1.95,2.63-4.66,4.66-8.14,6.09-3.48,1.43-7.48,2.15-11.98,2.15s-8.76-.89-12.34-2.66Z"/>
    <path d="M408.15,335.88h14.75c.74,0,1.33.6,1.33,1.33v48.54c0,.74-.6,1.33-1.33,1.33h-14.75c-.74,0-1.33-.6-1.33-1.33v-48.54c0-.74.6-1.33,1.33-1.33ZM421.36,344.07h3.89c.75-3.07,2.08-5.41,3.99-7.01,1.91-1.6,4.3-2.41,7.17-2.41h.72c.74,0,1.33.6,1.33,1.33v15.16c0,.74-.6,1.33-1.33,1.33h-1.54c-2.32,0-4.34.41-6.04,1.23-1.71.82-3.02,2.01-3.94,3.58-.92,1.57-1.38,3.38-1.38,5.43h-2.87v-18.64Z"/>
    <path d="M450.39,382.93c-3.04-2.77-4.56-6.5-4.56-11.21v-54.99c0-.74.6-1.33,1.33-1.33h14.75c.74,0,1.33.6,1.33,1.33v50.38c0,1.23.36,2.2,1.07,2.92.72.72,1.65,1.08,2.82,1.08h1.95c.74,0,1.33.6,1.33,1.33v13.31c0,.74-.6,1.33-1.33,1.33h-6.76c-4.91,0-8.89-1.38-11.93-4.15Z"/>
    <path d="M480.8,384.21c-2.97-2.73-4.46-6.42-4.46-11.06s1.54-8.48,4.61-11.32c3.07-2.83,7.1-4.25,12.08-4.25h15.56v10.44h-10.04c-1.43,0-2.56.32-3.38.97-.82.65-1.23,1.59-1.23,2.82,0,1.3.51,2.32,1.54,3.07,1.02.75,2.42,1.13,4.2,1.13,1.09,0,2.11-.17,3.07-.51.95-.34,1.69-.85,2.2-1.54.51-.68.77-1.43.77-2.25h3.07v9.83h-3.48c-1.02,2.12-2.65,3.77-4.86,4.97-2.22,1.19-4.86,1.79-7.94,1.79-4.85,0-8.76-1.37-11.72-4.1ZM506.45,379.6l-.72-.41v-26.32c0-1.43-.5-2.59-1.49-3.48-.99-.89-2.3-1.33-3.94-1.33-1.5,0-2.75.39-3.74,1.18-.99.79-1.49,1.83-1.49,3.12h0c0,.74-.6,1.33-1.33,1.33h-14.13c-.74,0-1.33-.6-1.33-1.33v-.61c0-3.41.94-6.42,2.82-9.01,1.88-2.59,4.51-4.59,7.89-5.99,3.38-1.4,7.32-2.1,11.83-2.1s8.36.72,11.77,2.15c3.41,1.43,6.04,3.45,7.89,6.04,1.84,2.59,2.76,5.63,2.76,9.11v33.79c0,.74-.6,1.33-1.33,1.33h-14.13c-.74,0-1.33-.6-1.33-1.33v-6.14Z"/>
    <path d="M534.71,335.88h14.75c.74,0,1.33.6,1.33,1.33v48.54c0,.74-.6,1.33-1.33,1.33h-14.75c-.74,0-1.33-.6-1.33-1.33v-48.54c0-.74.6-1.33,1.33-1.33ZM560.46,352.36c-.92-.96-2.2-1.43-3.84-1.43-1.16,0-2.19.22-3.07.67-.89.44-1.57,1.02-2.05,1.74-.48.72-.72,1.62-.72,2.71h-2.87v-13.41h3.89c1.02-2.32,2.68-4.23,4.96-5.73,2.29-1.5,5-2.25,8.14-2.25,4.23,0,7.7,1.35,10.39,4.04,2.7,2.7,4.04,6.13,4.04,10.29v36.76c0,.74-.6,1.33-1.33,1.33h-14.85c-.74,0-1.33-.6-1.33-1.33v-29.59c0-1.57-.46-2.83-1.38-3.79Z"/>
    <path d="M592.61,383.75c-2.9-3.04-4.35-7.05-4.35-12.03v-20.48c0-4.98,1.45-8.99,4.35-12.03,2.9-3.04,6.64-4.56,11.21-4.56,2.94,0,5.55.75,7.83,2.25,2.29,1.5,3.84,3.41,4.66,5.73h4.1v13.72h-2.87c0-1.09-.26-2.05-.77-2.87-.51-.82-1.21-1.45-2.1-1.89-.89-.44-1.95-.67-3.17-.67-1.78,0-3.19.51-4.25,1.54-1.06,1.02-1.59,2.36-1.59,3.99v10.04c0,1.64.53,2.97,1.59,3.99,1.06,1.02,2.47,1.54,4.25,1.54,1.23,0,2.29-.22,3.17-.67.89-.44,1.59-1.07,2.1-1.89.51-.82.77-1.77.77-2.87h2.87v13.72h-4.1c-.82,2.32-2.37,4.23-4.66,5.73s-4.9,2.25-7.83,2.25c-4.57,0-8.31-1.52-11.21-4.56ZM618.88,315.4h14.64c.74,0,1.33.6,1.33,1.33v69.02c0,.74-.6,1.33-1.33,1.33h-14.64c-.74,0-1.33-.6-1.33-1.33v-69.02c0-.74.6-1.33,1.33-1.33Z"/>
  </g>
  <g>
    <path d="M208.6,408.24h16.76v68.61h-16.76c-.86,0-1.57-.7-1.57-1.57v-65.48c0-.86.7-1.57,1.57-1.57ZM220.86,459.85h12.8c2.05,0,3.86-.37,5.43-1.13,1.57-.75,2.75-1.84,3.53-3.28.78-1.43,1.18-3.14,1.18-5.12v-15.56c0-1.98-.39-3.69-1.18-5.12-.79-1.43-1.96-2.52-3.53-3.28-1.57-.75-3.38-1.13-5.43-1.13h-12.8v-17h13.21c5.53,0,10.43,1.09,14.7,3.28,4.26,2.19,7.56,5.22,9.88,9.11,2.32,3.89,3.48,8.47,3.48,13.72v16.38c0,5.26-1.16,9.83-3.48,13.72-2.32,3.89-5.62,6.93-9.88,9.11-4.27,2.19-9.16,3.28-14.7,3.28h-13.21v-17Z"/>
    <path d="M273.75,473.98c-2.97-2.73-4.46-6.42-4.46-11.06s1.54-8.48,4.61-11.32c3.07-2.83,7.1-4.25,12.08-4.25h15.56v10.44h-10.04c-1.43,0-2.56.32-3.38.97-.82.65-1.23,1.59-1.23,2.82,0,1.3.51,2.32,1.54,3.07,1.02.75,2.42,1.13,4.2,1.13,1.09,0,2.11-.17,3.07-.51.95-.34,1.69-.85,2.2-1.54.51-.68.77-1.43.77-2.25h3.07v9.83h-3.48c-1.02,2.12-2.65,3.77-4.86,4.97-2.22,1.19-4.86,1.79-7.94,1.79-4.85,0-8.76-1.37-11.72-4.1ZM299.4,469.37l-.72-.41v-26.32c0-1.43-.5-2.59-1.49-3.48-.99-.89-2.3-1.33-3.94-1.33-1.5,0-2.75.39-3.74,1.18-.99.79-1.49,1.83-1.49,3.12h0c0,.74-.6,1.33-1.33,1.33h-14.13c-.74,0-1.33-.6-1.33-1.33v-.61c0-3.41.94-6.42,2.82-9.01,1.88-2.59,4.51-4.59,7.89-5.99,3.38-1.4,7.32-2.1,11.83-2.1s8.36.72,11.77,2.15c3.41,1.43,6.04,3.45,7.89,6.04,1.84,2.59,2.76,5.63,2.76,9.11v33.79c0,.74-.6,1.33-1.33,1.33h-14.13c-.74,0-1.33-.6-1.33-1.33v-6.14Z"/>
    <path d="M327.66,425.65h14.75c.74,0,1.33.6,1.33,1.33v48.54c0,.74-.6,1.33-1.33,1.33h-14.75c-.74,0-1.33-.6-1.33-1.33v-48.54c0-.74.6-1.33,1.33-1.33ZM340.87,433.84h3.89c.75-3.07,2.08-5.41,3.99-7.01,1.91-1.6,4.3-2.41,7.17-2.41h.72c.74,0,1.33.6,1.33,1.33v15.16c0,.74-.6,1.33-1.33,1.33h-1.54c-2.32,0-4.34.41-6.04,1.23-1.71.82-3.02,2.01-3.94,3.58-.92,1.57-1.38,3.38-1.38,5.43h-2.87v-18.64Z"/>
    <path d="M367.18,405.17h14.75c.74,0,1.33.6,1.33,1.33v69.02c0,.74-.6,1.33-1.33,1.33h-14.75c-.74,0-1.33-.6-1.33-1.33v-69.02c0-.74.6-1.33,1.33-1.33ZM380.29,441.62h4.2l10.25-15.38c.25-.37.66-.59,1.11-.59h16.5c1.13,0,1.75,1.32,1.02,2.19l-21.3,25.36-11.77,14.13v-25.7ZM384.08,454.52l11.37-11.78,18.89,32.09c.52.89-.12,2.01-1.15,2.01h-17.22c-.51,0-.97-.29-1.19-.74l-10.69-21.58Z"/>
    <path d="M454.79,475.41c-4.2-1.77-7.41-4.25-9.63-7.42-2.22-3.17-3.33-6.84-3.33-11.01h0c0-.74.6-1.33,1.33-1.33h16.59c.74,0,1.33.6,1.33,1.33v.21c0,1.91.78,3.45,2.35,4.61,1.57,1.16,3.55,1.74,5.94,1.74,1.3,0,2.54-.24,3.74-.72,1.19-.48,2.11-1.07,2.76-1.79.65-.72.97-1.62.97-2.71,0-1.3-.5-2.37-1.49-3.23-.99-.85-2.22-1.59-3.69-2.2-1.47-.61-3.64-1.36-6.5-2.25-4.64-1.5-8.48-2.97-11.52-4.4s-5.68-3.64-7.94-6.61c-2.25-2.97-3.38-6.81-3.38-11.52,0-4.44,1.09-8.22,3.28-11.37,2.18-3.14,5.29-5.55,9.32-7.22,4.03-1.67,8.6-2.51,13.72-2.51,5.39,0,10.05.84,13.98,2.51,3.92,1.67,6.98,4.01,9.16,7.01,2.19,3.01,3.28,6.49,3.28,10.44h0c0,.74-.6,1.33-1.33,1.33h-16.38c-.74,0-1.33-.6-1.33-1.33h0c0-1.64-.68-2.95-2.05-3.94-1.37-.99-3.14-1.48-5.32-1.48-1.43,0-2.66.2-3.69.61-1.02.41-1.83.97-2.41,1.69-.58.72-.87,1.59-.87,2.61,0,1.16.47,2.15,1.43,2.97.95.82,2.18,1.54,3.69,2.15,1.5.61,3.62,1.33,6.35,2.15,4.64,1.3,8.5,2.66,11.57,4.1,3.07,1.43,5.73,3.65,7.99,6.66,2.25,3.01,3.38,6.9,3.38,11.67,0,4.51-1.09,8.4-3.28,11.67-2.19,3.28-5.31,5.8-9.37,7.58-4.06,1.77-8.79,2.66-14.18,2.66s-10.29-.89-14.49-2.66Z"/>
    <path d="M506.55,405.17h14.75c.74,0,1.33.6,1.33,1.33v69.02c0,.74-.6,1.33-1.33,1.33h-14.75c-.74,0-1.33-.6-1.33-1.33v-69.02c0-.74.6-1.33,1.33-1.33ZM519.66,441.62h4.2l10.25-15.38c.25-.37.66-.59,1.11-.59h16.5c1.13,0,1.75,1.32,1.02,2.19l-21.3,25.36-11.77,14.13v-25.7ZM523.44,454.52l11.37-11.78,18.89,32.09c.52.89-.12,2.01-1.15,2.01h-17.22c-.51,0-.97-.29-1.19-.74l-10.69-21.58Z"/>
    <path d="M563.07,482.27c0-.74.6-1.33,1.33-1.33h6.04c1.37,0,2.49-.27,3.38-.82.89-.55,1.54-1.43,1.95-2.66l.82-2.46h-3.61c-.59,0-1.11-.39-1.28-.96l-13.76-46.69c-.25-.85.39-1.71,1.28-1.71h16.28c.64,0,1.18.45,1.31,1.07l6.03,30.57h1.74l5.94-30.56c.12-.63.67-1.08,1.31-1.08h15.55c.89,0,1.53.86,1.28,1.71l-16.59,55.53c-1.23,4.16-3.24,7.27-6.04,9.32-2.8,2.05-6.52,3.07-11.16,3.07h-10.45c-.74,0-1.33-.6-1.33-1.33v-11.67Z"/>
  </g>
  <g>
    <path d="M208.07,501.78h17.29v67.57c0,.57-.46,1.04-1.04,1.04h-16.25c-.57,0-1.04-.46-1.04-1.04v-66.53c0-.57.46-1.04,1.04-1.04ZM220.86,533.62h15.97c2.32,0,4.18-.65,5.58-1.95,1.4-1.3,2.1-3.07,2.1-5.32,0-2.46-.7-4.33-2.1-5.63-1.4-1.3-3.26-1.95-5.58-1.95h-15.97v-17h17.82c4.78,0,8.99.97,12.65,2.92s6.47,4.76,8.45,8.45c1.98,3.69,2.97,7.92,2.97,12.7s-.99,9.15-2.97,12.9-4.78,6.67-8.4,8.75c-3.62,2.08-7.85,3.12-12.7,3.12h-17.82v-17ZM230.9,546.01l17.2-3.79,15.57,26.6c.4.69-.09,1.56-.9,1.56h-19.15c-.39,0-.75-.22-.93-.58l-11.8-23.79Z"/>
    <path d="M280.61,568.95c-3.58-1.77-6.35-4.3-8.29-7.58-1.95-3.27-2.92-7.03-2.92-11.26v-10.65c0-4.23.97-7.99,2.92-11.26,1.94-3.28,4.67-5.8,8.19-7.58,3.51-1.77,7.56-2.66,12.13-2.66s8.72.91,12.24,2.71c3.51,1.81,6.25,4.39,8.19,7.73,1.95,3.35,2.92,7.17,2.92,11.47v7.56c0,1.37-1.11,2.47-2.47,2.47h-31.11v-10.65h18.12l-2.05,2.25v-4.51c0-1.7-.53-3.07-1.59-4.1-1.06-1.02-2.47-1.54-4.25-1.54s-3.19.5-4.25,1.49-1.59,2.37-1.59,4.15v15.56c0,1.71.56,3.07,1.69,4.1,1.12,1.02,2.64,1.54,4.56,1.54,1.71,0,3.04-.34,3.99-1.02.95-.68,1.43-1.6,1.43-2.76v-.41h17.51v.31c0,3.41-.97,6.44-2.92,9.06-1.95,2.63-4.66,4.66-8.14,6.09-3.48,1.44-7.48,2.15-11.98,2.15s-8.76-.89-12.34-2.66Z"/>
    <path d="M333.29,569.56c-3.41-1.37-6.01-3.28-7.78-5.74s-2.66-5.29-2.66-8.5v-.82h17.1v.92c0,1.16.46,2.12,1.38,2.87.92.75,2.17,1.12,3.74,1.12,1.09,0,2-.12,2.71-.36.72-.24,1.28-.6,1.69-1.07.41-.48.61-1.02.61-1.64,0-.82-.39-1.54-1.18-2.15s-1.79-1.16-3.02-1.64c-1.23-.48-2.76-.92-4.61-1.33-3.69-1.09-6.74-2.17-9.16-3.22s-4.52-2.71-6.3-4.97c-1.78-2.25-2.66-5.15-2.66-8.7,0-5.19,1.94-9.21,5.84-12.08,3.89-2.87,9.08-4.3,15.56-4.3,4.37,0,8.21.63,11.52,1.89,3.31,1.26,5.84,3.06,7.58,5.38,1.74,2.32,2.61,5.02,2.61,8.09v.33c0,.38-.31.69-.69.69h-15.51c-.38,0-.69-.31-.69-.69h0c0-.89-.31-1.78-.98-2.38-.84-.75-2.04-1.13-3.63-1.13-1.37,0-2.44.26-3.23.77-.79.51-1.18,1.18-1.18,2,0,.89.34,1.6,1.02,2.15.68.55,1.67,1.04,2.97,1.49,1.3.45,2.83.91,4.61,1.38,3.55.89,6.57,1.86,9.06,2.92,2.49,1.06,4.64,2.7,6.45,4.92,1.81,2.22,2.71,5.17,2.71,8.86,0,3.48-.89,6.5-2.66,9.06-1.78,2.56-4.32,4.52-7.63,5.89-3.31,1.36-7.19,2.05-11.62,2.05s-8.57-.68-11.98-2.05Z"/>
    <path d="M384.95,568.95c-3.58-1.77-6.35-4.3-8.29-7.58-1.95-3.27-2.92-7.03-2.92-11.26v-10.65c0-4.23.97-7.99,2.92-11.26,1.94-3.28,4.67-5.8,8.19-7.58,3.51-1.77,7.56-2.66,12.13-2.66s8.72.91,12.24,2.71c3.51,1.81,6.25,4.39,8.19,7.73,1.95,3.35,2.92,7.17,2.92,11.47v7.99c0,1.13-.92,2.05-2.05,2.05h-31.54v-10.65h18.12l-2.05,2.25v-4.51c0-1.7-.53-3.07-1.59-4.1-1.06-1.02-2.47-1.54-4.25-1.54s-3.19.5-4.25,1.49-1.59,2.37-1.59,4.15v15.56c0,1.71.56,3.07,1.69,4.1,1.12,1.02,2.64,1.54,4.56,1.54,1.71,0,3.04-.34,3.99-1.02.95-.68,1.43-1.6,1.43-2.76v-.41h17.51v.31c0,3.41-.97,6.44-2.92,9.06-1.95,2.63-4.66,4.66-8.14,6.09-3.48,1.44-7.48,2.15-11.98,2.15s-8.76-.89-12.34-2.66Z"/>
    <path d="M431.7,519.18h13.31c1.13,0,2.05.92,2.05,2.05v47.1c0,1.13-.92,2.05-2.05,2.05h-13.31c-1.13,0-2.05-.92-2.05-2.05v-47.1c0-1.13.92-2.05,2.05-2.05ZM444.19,527.38h3.89c.75-3.07,2.08-5.41,3.99-7.01,1.91-1.6,4.3-2.41,7.17-2.41h0c1.13,0,2.05.92,2.05,2.05v13.72c0,1.13-.92,2.05-2.05,2.05h-.82c-2.32,0-4.34.41-6.04,1.23-1.71.82-3.02,2.01-3.94,3.59-.92,1.57-1.38,3.38-1.38,5.43h-2.87v-18.64Z"/>
    <path d="M468.74,519.18h14.73c.98,0,1.82.69,2.01,1.64l6.02,29.9h1.02l6.02-29.9c.19-.96,1.03-1.64,2.01-1.64h14.1c1.37,0,2.36,1.32,1.96,2.64l-14.13,47.1c-.26.87-1.06,1.46-1.96,1.46h-17.84c-.91,0-1.71-.6-1.96-1.47l-13.94-47.1c-.39-1.31.59-2.63,1.96-2.63Z"/>
    <path d="M531.79,568.95c-3.58-1.77-6.35-4.3-8.29-7.58-1.95-3.27-2.92-7.03-2.92-11.26v-10.65c0-4.23.97-7.99,2.92-11.26,1.94-3.28,4.67-5.8,8.19-7.58,3.51-1.77,7.56-2.66,12.13-2.66s8.72.91,12.24,2.71c3.51,1.81,6.25,4.39,8.19,7.73,1.95,3.35,2.92,7.17,2.92,11.47v7.99c0,1.13-.92,2.05-2.05,2.05h-31.54v-10.65h18.12l-2.05,2.25v-4.51c0-1.7-.53-3.07-1.59-4.1-1.06-1.02-2.47-1.54-4.25-1.54s-3.19.5-4.25,1.49-1.59,2.37-1.59,4.15v15.56c0,1.71.56,3.07,1.69,4.1,1.12,1.02,2.64,1.54,4.56,1.54,1.71,0,3.04-.34,3.99-1.02.95-.68,1.43-1.6,1.43-2.76v-.41h17.51v.31c0,3.41-.97,6.44-2.92,9.06-1.95,2.63-4.66,4.66-8.14,6.09-3.48,1.44-7.48,2.15-11.98,2.15s-8.76-.89-12.34-2.66Z"/>
  </g>
  <g>
    <path class="cls-1" d="M320.34,40.69c-13.67,222.22,350.86-152.42,355.24,63.69,2.16,106.44-88.38,137.76-67.11,68.4,57.28-186.81-260.76,79.51-323.6-42.75-26.24-51.05,38.9-144.92,35.48-89.34Z"/>
    <path class="cls-4" d="M283.6,72.04c-13.67,222.22,350.86-152.42,355.24,63.69,2.16,106.44-88.38,137.76-67.11,68.4,57.28-186.81-260.76,79.51-323.6-42.75-26.24-51.05,38.9-144.92,35.48-89.34Z"/>
    <path class="cls-3" d="M246.21,101.72c-13.67,222.22,350.86-152.42,355.24,63.69,2.16,106.44-88.38,137.76-67.11,68.4,57.28-186.81-260.76,79.51-323.6-42.75-26.24-51.05,38.9-144.92,35.48-89.34Z"/>
    <path class="cls-2" d="M208,135.05c-13.67,222.22,350.86-152.42,355.24,63.69,2.16,106.44-88.38,137.76-67.11,68.4,57.28-186.81-260.76,79.51-323.6-42.75-26.24-51.05,38.9-144.92,35.48-89.34Z"/>
  </g>
</svg>