<?xml version="1.0" encoding="UTF-8"?>
<svg id="Layer_1" data-name="Layer 1" xmlns="http://www.w3.org/2000/svg" viewBox="0 0 841.89 595.28">
  <defs>
    <style>
      .cls-1 {
        fill: #102e42;
      }

      .cls-2 {
        fill: #a55c3e;
      }

      .cls-3 {
        fill: #572618;
      }

      .cls-4 {
        fill: #303b59;
      }
    </style>
  </defs>
  <g>
    <rect class="cls-3" x="20.97" y="298.91" width="295.42" height="73.85" rx="36.93" ry="36.93"/>
    <rect class="cls-2" x="20.97" y="372.77" width="295.42" height="73.85" rx="36.93" ry="36.93"/>
    <rect class="cls-4" x="20.97" y="225.06" width="295.42" height="73.85" rx="36.93" ry="36.93"/>
    <rect class="cls-1" x="20.97" y="151.2" width="295.42" height="73.85" rx="36.93" ry="36.93"/>
  </g>
  <g>
    <path d="M341.28,156.48h19.12v75.66c0,.83-.67,1.5-1.5,1.5h-17.62c-.83,0-1.5-.67-1.5-1.5v-74.17c0-.83.67-1.5,1.5-1.5ZM355.33,192.3h17.96c2.61,0,4.7-.73,6.28-2.19,1.57-1.46,2.36-3.45,2.36-5.99,0-2.76-.79-4.87-2.36-6.33-1.57-1.46-3.67-2.19-6.28-2.19h-17.96v-19.12h20.04c5.37,0,10.11,1.09,14.22,3.28s7.27,5.35,9.5,9.5c2.23,4.15,3.34,8.91,3.34,14.28s-1.12,10.29-3.34,14.51c-2.23,4.22-5.37,7.51-9.44,9.85-4.07,2.34-8.83,3.51-14.28,3.51h-20.04v-19.12ZM366.61,206.24l19.35-4.26,17.22,29.42c.58,1-.14,2.25-1.29,2.25h-20.76c-.57,0-1.09-.32-1.34-.83l-13.18-26.58Z"/>
    <path d="M414.35,167.54c-2.11-2-3.17-4.64-3.17-7.95s1.04-5.95,3.11-7.95c2.07-2,4.88-2.99,8.41-2.99s6.08.98,8.12,2.94c2.03,1.96,3.05,4.63,3.05,8s-1.02,5.95-3.05,7.95c-2.03,2-4.74,2.99-8.12,2.99s-6.24-1-8.35-2.99ZM414.18,176.06h16.58c.83,0,1.5.67,1.5,1.5v54.59c0,.83-.67,1.5-1.5,1.5h-16.58c-.83,0-1.5-.67-1.5-1.5v-54.59c0-.83.67-1.5,1.5-1.5Z"/>
    <path d="M442.21,176.06h18.31c.71,0,1.33.5,1.47,1.2l6.9,34.27h1.15l6.9-34.27c.14-.7.75-1.2,1.47-1.2h17.61c1,0,1.72.97,1.43,1.93l-16.37,54.59c-.19.63-.77,1.07-1.43,1.07h-21.26c-.66,0-1.25-.44-1.44-1.07l-16.16-54.59c-.28-.96.43-1.92,1.44-1.92Z"/>
    <path d="M514.19,232.03c-4.03-2-7.14-4.84-9.33-8.52-2.19-3.68-3.28-7.91-3.28-12.67v-11.98c0-4.76,1.09-8.98,3.28-12.67,2.19-3.69,5.26-6.53,9.21-8.52,3.95-2,8.5-2.99,13.65-2.99s9.81,1.02,13.76,3.05c3.95,2.04,7.02,4.93,9.21,8.69,2.19,3.76,3.28,8.06,3.28,12.9v9.79c0,.83-.67,1.5-1.5,1.5h-36.28v-11.98h20.38l-2.3,2.53v-5.07c0-1.92-.6-3.45-1.79-4.61s-2.78-1.73-4.78-1.73-3.59.56-4.78,1.67-1.78,2.67-1.78,4.66v17.5c0,1.92.63,3.45,1.9,4.61,1.27,1.15,2.97,1.73,5.12,1.73,1.92,0,3.42-.38,4.49-1.15,1.07-.77,1.61-1.8,1.61-3.11v-.46h19.69v.35c0,3.84-1.09,7.24-3.28,10.19-2.19,2.96-5.24,5.24-9.15,6.85-3.92,1.61-8.41,2.42-13.47,2.42s-9.85-1-13.88-2.99Z"/>
    <path d="M565.96,176.06h16.58c.83,0,1.5.67,1.5,1.5v54.59c0,.83-.67,1.5-1.5,1.5h-16.58c-.83,0-1.5-.67-1.5-1.5v-54.59c0-.83.67-1.5,1.5-1.5ZM580.82,185.27h4.38c.84-3.45,2.34-6.08,4.49-7.89,2.15-1.8,4.84-2.71,8.06-2.71h.81c.83,0,1.5.67,1.5,1.5v17.04c0,.83-.67,1.5-1.5,1.5h-1.73c-2.61,0-4.88.46-6.79,1.38-1.92.92-3.4,2.27-4.43,4.03-1.04,1.77-1.56,3.8-1.56,6.1h-3.22v-20.96Z"/>
    <path d="M613.47,228.98c-3.42-3.11-5.13-7.31-5.13-12.61v-61.84c0-.83.67-1.5,1.5-1.5h16.58c.83,0,1.5.67,1.5,1.5v56.66c0,1.38.4,2.48,1.21,3.28.81.81,1.86,1.21,3.17,1.21h2.19c.83,0,1.5.67,1.5,1.5v14.97c0,.83-.67,1.5-1.5,1.5h-7.6c-5.53,0-10-1.55-13.42-4.66Z"/>
    <path d="M647.67,230.42c-3.34-3.07-5.01-7.22-5.01-12.44s1.73-9.54,5.18-12.73c3.46-3.19,7.98-4.78,13.59-4.78h17.5v11.75h-11.29c-1.61,0-2.88.37-3.8,1.09-.92.73-1.38,1.79-1.38,3.17,0,1.46.57,2.61,1.73,3.45,1.15.85,2.72,1.27,4.72,1.27,1.23,0,2.38-.19,3.46-.58,1.07-.38,1.9-.96,2.47-1.73.58-.77.86-1.61.86-2.53h3.46v11.06h-3.92c-1.15,2.38-2.98,4.24-5.47,5.58-2.5,1.34-5.47,2.02-8.92,2.02-5.45,0-9.85-1.54-13.19-4.61ZM676.51,225.24l-.81-.46v-29.6c0-1.61-.56-2.92-1.67-3.92-1.11-1-2.59-1.5-4.43-1.5-1.69,0-3.09.44-4.2,1.32-1.11.88-1.67,2.05-1.67,3.51h0c0,.83-.67,1.5-1.5,1.5h-15.89c-.83,0-1.5-.67-1.5-1.5v-.69c0-3.84,1.05-7.22,3.17-10.13,2.11-2.92,5.07-5.16,8.87-6.74,3.8-1.57,8.23-2.36,13.3-2.36s9.4.81,13.24,2.42c3.84,1.61,6.79,3.88,8.87,6.79,2.07,2.92,3.11,6.33,3.11,10.25v38c0,.83-.67,1.5-1.5,1.5h-15.89c-.83,0-1.5-.67-1.5-1.5v-6.91Z"/>
    <path d="M708.3,176.06h16.58c.83,0,1.5.67,1.5,1.5v54.59c0,.83-.67,1.5-1.5,1.5h-16.58c-.83,0-1.5-.67-1.5-1.5v-54.59c0-.83.67-1.5,1.5-1.5ZM737.26,194.6c-1.04-1.07-2.48-1.61-4.32-1.61-1.31,0-2.46.25-3.46.75-1,.5-1.77,1.15-2.3,1.96-.54.81-.81,1.82-.81,3.05h-3.22v-15.09h4.38c1.15-2.61,3.01-4.76,5.58-6.45,2.57-1.69,5.62-2.53,9.16-2.53,4.76,0,8.66,1.52,11.69,4.55,3.03,3.03,4.55,6.89,4.55,11.57v41.34c0,.83-.67,1.5-1.5,1.5h-16.7c-.83,0-1.5-.67-1.5-1.5v-33.28c0-1.77-.52-3.19-1.55-4.26Z"/>
    <path d="M773.42,229.9c-3.26-3.41-4.89-7.93-4.89-13.53v-23.03c0-5.6,1.63-10.11,4.89-13.53,3.26-3.41,7.46-5.13,12.61-5.13,3.3,0,6.24.85,8.81,2.53,2.57,1.69,4.32,3.84,5.24,6.45h4.61v15.43h-3.22c0-1.23-.29-2.3-.86-3.23-.58-.92-1.36-1.63-2.36-2.13-1-.5-2.19-.75-3.57-.75-2,0-3.59.58-4.78,1.73-1.19,1.15-1.79,2.65-1.79,4.49v11.29c0,1.84.59,3.34,1.79,4.49,1.19,1.15,2.78,1.73,4.78,1.73,1.38,0,2.57-.25,3.57-.75,1-.5,1.79-1.21,2.36-2.13.58-.92.86-2,.86-3.23h3.22v15.43h-4.61c-.92,2.61-2.67,4.76-5.24,6.45s-5.51,2.53-8.81,2.53c-5.15,0-9.35-1.71-12.61-5.13ZM802.96,153.03h16.47c.83,0,1.5.67,1.5,1.5v77.62c0,.83-.67,1.5-1.5,1.5h-16.47c-.83,0-1.5-.67-1.5-1.5v-77.62c0-.83.67-1.5,1.5-1.5Z"/>
  </g>
  <g>
    <path d="M341.54,257.44h18.85v77.16h-18.85c-.97,0-1.76-.79-1.76-1.76v-73.64c0-.97.79-1.76,1.76-1.76ZM355.33,315.49h14.4c2.3,0,4.34-.42,6.1-1.27,1.76-.84,3.09-2.07,3.97-3.69.88-1.61,1.32-3.53,1.32-5.76v-17.5c0-2.23-.44-4.15-1.32-5.76-.89-1.61-2.21-2.84-3.97-3.69-1.77-.84-3.8-1.27-6.1-1.27h-14.4v-19.12h14.85c6.22,0,11.73,1.23,16.53,3.69,4.8,2.46,8.5,5.87,11.11,10.25,2.61,4.38,3.92,9.52,3.92,15.43v18.43c0,5.91-1.31,11.06-3.92,15.43-2.61,4.38-6.32,7.79-11.11,10.25-4.8,2.46-10.31,3.69-16.53,3.69h-14.85v-19.12Z"/>
    <path d="M414.81,331.38c-3.34-3.07-5.01-7.22-5.01-12.44s1.73-9.54,5.18-12.73c3.46-3.19,7.98-4.78,13.59-4.78h17.5v11.75h-11.29c-1.61,0-2.88.37-3.8,1.09-.92.73-1.38,1.79-1.38,3.17,0,1.46.57,2.61,1.73,3.45,1.15.85,2.72,1.27,4.72,1.27,1.23,0,2.38-.19,3.46-.58,1.07-.38,1.9-.96,2.47-1.73.58-.77.86-1.61.86-2.53h3.46v11.06h-3.92c-1.15,2.38-2.98,4.24-5.47,5.58-2.5,1.34-5.47,2.02-8.92,2.02-5.45,0-9.85-1.54-13.19-4.61ZM443.66,326.19l-.81-.46v-29.6c0-1.61-.56-2.92-1.67-3.92-1.11-1-2.59-1.5-4.43-1.5-1.69,0-3.09.44-4.2,1.32-1.11.88-1.67,2.05-1.67,3.51h0c0,.83-.67,1.5-1.5,1.5h-15.89c-.83,0-1.5-.67-1.5-1.5v-.69c0-3.84,1.05-7.22,3.17-10.13,2.11-2.92,5.07-5.16,8.87-6.74,3.8-1.57,8.23-2.36,13.3-2.36s9.4.81,13.24,2.42c3.84,1.61,6.79,3.88,8.87,6.79,2.07,2.92,3.11,6.33,3.11,10.25v38c0,.83-.67,1.5-1.5,1.5h-15.89c-.83,0-1.5-.67-1.5-1.5v-6.91Z"/>
    <path d="M475.44,277.02h16.58c.83,0,1.5.67,1.5,1.5v54.59c0,.83-.67,1.5-1.5,1.5h-16.58c-.83,0-1.5-.67-1.5-1.5v-54.59c0-.83.67-1.5,1.5-1.5ZM490.3,286.23h4.38c.84-3.45,2.34-6.08,4.49-7.89,2.15-1.8,4.84-2.71,8.06-2.71h.81c.83,0,1.5.67,1.5,1.5v17.04c0,.83-.67,1.5-1.5,1.5h-1.73c-2.61,0-4.88.46-6.79,1.38-1.92.92-3.4,2.27-4.43,4.03-1.04,1.77-1.56,3.8-1.56,6.1h-3.22v-20.96Z"/>
    <path d="M519.89,253.99h16.58c.83,0,1.5.67,1.5,1.5v77.62c0,.83-.67,1.5-1.5,1.5h-16.58c-.83,0-1.5-.67-1.5-1.5v-77.62c0-.83.67-1.5,1.5-1.5ZM534.63,294.99h4.72l11.53-17.3c.28-.42.75-.67,1.25-.67h18.56c1.27,0,1.96,1.49,1.15,2.46l-23.96,28.52-13.24,15.89v-28.91ZM538.89,309.5l12.78-13.24,21.24,36.09c.59,1-.13,2.26-1.29,2.26h-19.37c-.57,0-1.09-.32-1.34-.83l-12.03-24.27Z"/>
    <path d="M618.41,332.99c-4.72-2-8.33-4.78-10.83-8.35-2.5-3.57-3.74-7.7-3.74-12.38h0c0-.83.67-1.5,1.5-1.5h18.66c.83,0,1.5.67,1.5,1.5v.23c0,2.15.88,3.88,2.65,5.18,1.76,1.31,3.99,1.96,6.68,1.96,1.46,0,2.86-.27,4.2-.81,1.34-.54,2.38-1.21,3.11-2.01.73-.81,1.09-1.82,1.09-3.05,0-1.46-.56-2.67-1.67-3.63-1.11-.96-2.5-1.78-4.14-2.48-1.65-.69-4.09-1.53-7.31-2.53-5.22-1.69-9.54-3.34-12.96-4.95-3.42-1.61-6.39-4.09-8.92-7.43-2.54-3.34-3.8-7.66-3.8-12.96,0-4.99,1.23-9.25,3.69-12.78,2.46-3.53,5.95-6.24,10.48-8.12,4.53-1.88,9.67-2.82,15.43-2.82,6.06,0,11.3.94,15.72,2.82,4.41,1.88,7.85,4.51,10.31,7.89,2.46,3.38,3.69,7.29,3.69,11.75h0c0,.83-.67,1.5-1.5,1.5h-18.43c-.83,0-1.5-.67-1.5-1.5h0c0-1.84-.77-3.32-2.3-4.43-1.54-1.11-3.53-1.67-5.99-1.67-1.61,0-2.99.23-4.15.69-1.15.46-2.05,1.09-2.71,1.9s-.98,1.78-.98,2.94c0,1.31.53,2.42,1.61,3.34,1.07.92,2.46,1.73,4.14,2.42,1.69.69,4.07,1.5,7.14,2.42,5.22,1.46,9.56,2.99,13.01,4.61,3.45,1.61,6.45,4.11,8.98,7.49,2.53,3.38,3.8,7.76,3.8,13.13,0,5.07-1.23,9.44-3.69,13.13-2.46,3.69-5.97,6.53-10.54,8.52-4.57,2-9.89,2.99-15.95,2.99s-11.57-1-16.3-2.99Z"/>
    <path d="M676.63,253.99h16.58c.83,0,1.5.67,1.5,1.5v77.62c0,.83-.67,1.5-1.5,1.5h-16.58c-.83,0-1.5-.67-1.5-1.5v-77.62c0-.83.67-1.5,1.5-1.5ZM691.37,294.99h4.72l11.53-17.3c.28-.42.75-.67,1.25-.67h18.56c1.27,0,1.96,1.49,1.15,2.46l-23.96,28.52-13.24,15.89v-28.91ZM695.63,309.5l12.78-13.24,21.24,36.09c.59,1-.13,2.26-1.29,2.26h-19.37c-.57,0-1.09-.32-1.34-.83l-12.03-24.27Z"/>
    <path d="M740.19,340.71c0-.83.67-1.5,1.5-1.5h6.79c1.54,0,2.8-.31,3.8-.92,1-.62,1.73-1.61,2.19-2.99l.92-2.76h-4.06c-.66,0-1.25-.44-1.44-1.07l-15.47-52.51c-.28-.96.44-1.92,1.44-1.92h18.3c.72,0,1.33.51,1.47,1.21l6.79,34.38h1.96l6.68-34.37c.14-.7.75-1.21,1.47-1.21h17.48c1,0,1.72.97,1.43,1.93l-18.66,62.45c-1.38,4.68-3.65,8.18-6.79,10.48-3.15,2.3-7.33,3.45-12.55,3.45h-11.75c-.83,0-1.5-.67-1.5-1.5v-13.13Z"/>
  </g>
  <g>
    <path d="M340.95,362.64h19.45v75.99c0,.64-.52,1.17-1.17,1.17h-18.28c-.64,0-1.17-.52-1.17-1.17v-74.83c0-.64.52-1.17,1.17-1.17ZM355.33,398.45h17.96c2.61,0,4.7-.73,6.28-2.19,1.57-1.46,2.36-3.45,2.36-5.99,0-2.76-.79-4.87-2.36-6.33-1.57-1.46-3.67-2.19-6.28-2.19h-17.96v-19.12h20.04c5.37,0,10.11,1.09,14.22,3.28,4.11,2.19,7.27,5.35,9.5,9.5,2.23,4.14,3.34,8.91,3.34,14.28s-1.12,10.29-3.34,14.51c-2.23,4.22-5.37,7.5-9.44,9.85-4.07,2.34-8.83,3.51-14.28,3.51h-20.04v-19.12ZM366.61,412.39l19.35-4.26,17.51,29.91c.46.78-.11,1.76-1.01,1.76h-21.54c-.44,0-.85-.25-1.05-.65l-13.27-26.76Z"/>
    <path d="M422.53,438.19c-4.03-2-7.14-4.84-9.33-8.52-2.19-3.68-3.28-7.91-3.28-12.67v-11.98c0-4.76,1.09-8.98,3.28-12.67,2.19-3.69,5.26-6.53,9.21-8.52,3.95-2,8.5-2.99,13.65-2.99s9.81,1.02,13.76,3.05c3.95,2.04,7.02,4.93,9.21,8.69,2.19,3.76,3.28,8.06,3.28,12.9v8.5c0,1.54-1.25,2.78-2.78,2.78h-34.99v-11.98h20.38l-2.3,2.53v-5.07c0-1.92-.6-3.45-1.79-4.61-1.19-1.15-2.78-1.73-4.78-1.73s-3.59.56-4.78,1.67-1.78,2.67-1.78,4.66v17.5c0,1.92.63,3.46,1.9,4.61,1.27,1.15,2.97,1.73,5.12,1.73,1.92,0,3.42-.38,4.49-1.15,1.07-.77,1.61-1.8,1.61-3.11v-.46h19.69v.35c0,3.84-1.09,7.24-3.28,10.19-2.19,2.96-5.24,5.24-9.15,6.85-3.92,1.61-8.41,2.42-13.47,2.42s-9.85-1-13.88-2.99Z"/>
    <path d="M481.78,438.88c-3.84-1.54-6.76-3.69-8.75-6.45-2-2.76-2.99-5.95-2.99-9.56v-.92h19.23v1.04c0,1.31.52,2.38,1.56,3.22,1.04.85,2.44,1.27,4.2,1.27,1.23,0,2.25-.13,3.05-.4.81-.27,1.44-.67,1.9-1.21.46-.54.69-1.15.69-1.84,0-.92-.44-1.73-1.33-2.42s-2.01-1.31-3.4-1.84c-1.38-.54-3.11-1.04-5.18-1.5-4.14-1.23-7.58-2.44-10.31-3.63s-5.09-3.05-7.08-5.59c-2-2.53-2.99-5.8-2.99-9.79,0-5.83,2.19-10.36,6.56-13.59,4.38-3.22,10.21-4.84,17.5-4.84,4.91,0,9.23.71,12.96,2.13,3.72,1.42,6.57,3.44,8.52,6.05,1.96,2.61,2.94,5.64,2.94,9.1v.37c0,.43-.35.78-.78.78h-17.44c-.43,0-.78-.35-.78-.78h0c0-1-.35-2-1.1-2.67-.94-.85-2.3-1.27-4.08-1.27-1.54,0-2.75.29-3.63.86-.88.57-1.32,1.32-1.32,2.24,0,1,.38,1.8,1.15,2.42.77.62,1.88,1.17,3.34,1.67,1.46.5,3.18,1.02,5.18,1.56,3.99,1,7.39,2.09,10.19,3.28,2.8,1.19,5.22,3.03,7.25,5.53s3.05,5.82,3.05,9.96c0,3.92-1,7.31-2.99,10.19-2,2.88-4.86,5.09-8.58,6.62-3.73,1.53-8.08,2.3-13.07,2.3s-9.63-.77-13.47-2.3Z"/>
    <path d="M539.87,438.19c-4.03-2-7.14-4.84-9.33-8.52-2.19-3.68-3.28-7.91-3.28-12.67v-11.98c0-4.76,1.09-8.98,3.28-12.67,2.19-3.69,5.26-6.53,9.21-8.52,3.95-2,8.5-2.99,13.65-2.99s9.81,1.02,13.76,3.05c3.95,2.04,7.02,4.93,9.21,8.69,2.19,3.76,3.28,8.06,3.28,12.9v8.98c0,1.27-1.03,2.3-2.3,2.3h-35.47v-11.98h20.38l-2.3,2.53v-5.07c0-1.92-.6-3.45-1.79-4.61-1.19-1.15-2.78-1.73-4.78-1.73s-3.59.56-4.78,1.67-1.78,2.67-1.78,4.66v17.5c0,1.92.63,3.46,1.9,4.61,1.27,1.15,2.97,1.73,5.12,1.73,1.92,0,3.42-.38,4.49-1.15,1.07-.77,1.61-1.8,1.61-3.11v-.46h19.69v.35c0,3.84-1.09,7.24-3.28,10.19-2.19,2.96-5.24,5.24-9.15,6.85-3.92,1.61-8.41,2.42-13.47,2.42s-9.85-1-13.88-2.99Z"/>
    <path d="M592.44,382.22h14.97c1.27,0,2.3,1.03,2.3,2.3v52.98c0,1.27-1.03,2.3-2.3,2.3h-14.97c-1.27,0-2.3-1.03-2.3-2.3v-52.98c0-1.27,1.03-2.3,2.3-2.3ZM606.5,391.43h4.38c.84-3.46,2.34-6.08,4.49-7.89s4.84-2.71,8.06-2.71h0c1.27,0,2.3,1.03,2.3,2.3v15.43c0,1.27-1.03,2.3-2.3,2.3h-.92c-2.61,0-4.88.46-6.79,1.38-1.92.92-3.4,2.27-4.43,4.03-1.04,1.77-1.56,3.8-1.56,6.1h-3.22v-20.96Z"/>
    <path d="M634.11,382.22h16.57c1.1,0,2.04.77,2.26,1.85l6.77,33.62h1.15l6.77-33.62c.22-1.08,1.16-1.85,2.26-1.85h15.86c1.54,0,2.65,1.49,2.21,2.96l-15.89,52.98c-.29.97-1.19,1.64-2.21,1.64h-20.06c-1.02,0-1.92-.67-2.21-1.65l-15.68-52.98c-.44-1.48.67-2.96,2.21-2.96Z"/>
    <path d="M705.02,438.19c-4.03-2-7.14-4.84-9.33-8.52-2.19-3.68-3.28-7.91-3.28-12.67v-11.98c0-4.76,1.09-8.98,3.28-12.67,2.19-3.69,5.26-6.53,9.21-8.52,3.95-2,8.5-2.99,13.65-2.99s9.81,1.02,13.76,3.05c3.95,2.04,7.02,4.93,9.21,8.69,2.19,3.76,3.28,8.06,3.28,12.9v8.98c0,1.27-1.03,2.3-2.3,2.3h-35.47v-11.98h20.38l-2.3,2.53v-5.07c0-1.92-.6-3.45-1.79-4.61-1.19-1.15-2.78-1.73-4.78-1.73s-3.59.56-4.78,1.67-1.78,2.67-1.78,4.66v17.5c0,1.92.63,3.46,1.9,4.61,1.27,1.15,2.97,1.73,5.12,1.73,1.92,0,3.42-.38,4.49-1.15,1.07-.77,1.61-1.8,1.61-3.11v-.46h19.69v.35c0,3.84-1.09,7.24-3.28,10.19-2.19,2.96-5.24,5.24-9.15,6.85-3.92,1.61-8.41,2.42-13.47,2.42s-9.85-1-13.88-2.99Z"/>
  </g>
</svg>