<?xml version="1.0" encoding="UTF-8"?>
<svg id="Layer_1" data-name="Layer 1" xmlns="http://www.w3.org/2000/svg" viewBox="0 0 841.89 595.28">
  <defs>
    <style>
      .cls-1 {
        fill: #102e42;
      }

      .cls-2 {
        fill: #a55c3e;
      }

      .cls-3 {
        fill: #572618;
      }

      .cls-4 {
        fill: #303b59;
      }
    </style>
  </defs>
  <g>
    <rect class="cls-3" x="9.6" y="298.95" width="303.82" height="75.95"/>
    <rect class="cls-2" x="9.6" y="374.9" width="303.82" height="75.95"/>
    <rect class="cls-4" x="9.6" y="222.99" width="303.82" height="75.95"/>
    <rect class="cls-1" x="9.6" y="147.04" width="303.82" height="75.95"/>
  </g>
  <g>
    <path d="M337.47,152.47h21.2v79.35h-21.2v-79.35ZM353.46,189.31h18.47c2.68,0,4.84-.75,6.46-2.25,1.62-1.5,2.43-3.55,2.43-6.16,0-2.84-.81-5.01-2.43-6.51-1.62-1.5-3.77-2.25-6.46-2.25h-18.47v-19.66h20.61c5.53,0,10.4,1.13,14.63,3.38,4.22,2.25,7.48,5.51,9.77,9.77s3.44,9.16,3.44,14.69-1.15,10.58-3.44,14.92c-2.29,4.34-5.53,7.72-9.71,10.13-4.19,2.41-9.08,3.61-14.69,3.61h-20.61v-19.66ZM365.07,203.64l19.9-4.38,19.07,32.57h-24.99l-13.98-28.19Z"/>
    <path d="M414.16,163.84c-2.17-2.05-3.26-4.78-3.26-8.17s1.07-6.12,3.2-8.17c2.13-2.05,5.01-3.08,8.65-3.08s6.26,1.01,8.35,3.02c2.09,2.01,3.14,4.76,3.14,8.23s-1.05,6.12-3.14,8.17-4.87,3.08-8.35,3.08-6.41-1.03-8.59-3.08ZM412.44,172.61h20.13v59.22h-20.13v-59.22Z"/>
    <path d="M440.75,172.61h22.15l7.34,36.48h1.18l7.34-36.48h21.44l-17.76,59.22h-24.16l-17.53-59.22Z"/>
    <path d="M516.84,230.17c-4.14-2.05-7.34-4.97-9.59-8.76-2.25-3.79-3.38-8.13-3.38-13.03v-12.32c0-4.9,1.13-9.24,3.38-13.03,2.25-3.79,5.41-6.71,9.47-8.76,4.06-2.05,8.74-3.08,14.03-3.08s10.09,1.05,14.15,3.14c4.06,2.09,7.22,5.07,9.47,8.94,2.25,3.87,3.38,8.29,3.38,13.26v11.61h-38.85v-12.32h20.96l-2.37,2.6v-5.21c0-1.97-.61-3.55-1.84-4.74s-2.86-1.78-4.92-1.78-3.69.57-4.92,1.72-1.83,2.74-1.83,4.8v18c0,1.97.65,3.55,1.95,4.74,1.3,1.18,3.06,1.78,5.27,1.78,1.97,0,3.51-.39,4.62-1.18,1.1-.79,1.66-1.85,1.66-3.2v-.47h20.25v.36c0,3.95-1.13,7.44-3.38,10.48-2.25,3.04-5.39,5.39-9.41,7.05-4.03,1.66-8.65,2.49-13.86,2.49s-10.13-1.03-14.27-3.08Z"/>
    <path d="M568.54,172.61h20.13v59.22h-20.13v-59.22ZM585.36,182.08h4.5c.87-3.55,2.41-6.26,4.62-8.11,2.21-1.85,4.98-2.78,8.29-2.78h2.37v20.61h-3.32c-2.68,0-5.01.47-6.99,1.42-1.98.95-3.49,2.33-4.56,4.15-1.07,1.82-1.6,3.91-1.6,6.28h-3.32v-21.56Z"/>
    <path d="M618.94,227.03c-3.52-3.2-5.27-7.52-5.27-12.97v-65.14h20.13v59.81c0,1.42.41,2.55,1.24,3.37.83.83,1.91,1.24,3.26,1.24h3.79v18.48h-9.36c-5.68,0-10.29-1.6-13.8-4.8Z"/>
    <path d="M654.11,228.51c-3.44-3.16-5.15-7.42-5.15-12.79s1.78-9.81,5.33-13.09c3.55-3.28,8.21-4.92,13.98-4.92h18v12.08h-11.61c-1.66,0-2.96.38-3.91,1.13-.95.75-1.42,1.84-1.42,3.26,0,1.5.59,2.68,1.78,3.55,1.18.87,2.8,1.3,4.86,1.3,1.26,0,2.45-.2,3.55-.59,1.1-.4,1.95-.99,2.54-1.78.59-.79.89-1.66.89-2.61h3.55v11.37h-4.03c-1.19,2.45-3.06,4.36-5.63,5.74-2.57,1.38-5.63,2.07-9.18,2.07-5.61,0-10.13-1.58-13.56-4.74ZM683.78,223.18l-.83-.47v-30.44c0-1.66-.57-3-1.72-4.03-1.14-1.03-2.67-1.54-4.56-1.54-1.74,0-3.18.46-4.32,1.36-1.14.91-1.72,2.11-1.72,3.61v1.54h-19.42v-2.25c0-3.95,1.08-7.42,3.26-10.42,2.17-3,5.21-5.31,9.12-6.93,3.91-1.62,8.47-2.43,13.68-2.43s9.67.83,13.62,2.49c3.95,1.66,6.99,3.99,9.12,6.99,2.13,3,3.2,6.51,3.2,10.54v40.62h-19.42v-8.65Z"/>
    <path d="M714.93,172.61h20.13v59.22h-20.13v-59.22ZM746.25,191.67c-1.07-1.1-2.55-1.66-4.44-1.66-1.34,0-2.53.26-3.55.77-1.03.51-1.82,1.18-2.37,2.01-.55.83-.83,1.88-.83,3.14h-3.32v-15.52h4.5c1.18-2.68,3.1-4.9,5.74-6.63,2.65-1.74,5.78-2.61,9.42-2.61,4.89,0,8.9,1.56,12.02,4.68,3.12,3.12,4.68,7.09,4.68,11.9v44.06h-20.25v-35.77c0-1.82-.53-3.28-1.6-4.38Z"/>
    <path d="M783.44,227.97c-3.36-3.51-5.03-8.15-5.03-13.92v-23.69c0-5.76,1.68-10.4,5.03-13.92,3.35-3.51,7.68-5.27,12.97-5.27,3.4,0,6.41.87,9.06,2.61,2.65,1.74,4.44,3.95,5.39,6.63h4.74v15.87h-3.32c0-1.26-.3-2.37-.89-3.32-.59-.95-1.4-1.68-2.43-2.19-1.03-.51-2.25-.77-3.67-.77-2.06,0-3.69.59-4.92,1.78-1.23,1.18-1.84,2.72-1.84,4.62v11.61c0,1.9.61,3.43,1.84,4.62,1.22,1.18,2.86,1.78,4.92,1.78,1.42,0,2.64-.26,3.67-.77,1.03-.51,1.84-1.24,2.43-2.19.59-.95.89-2.05.89-3.32h3.32v15.87h-4.74c-.95,2.69-2.74,4.9-5.39,6.63s-5.66,2.61-9.06,2.61c-5.29,0-9.61-1.76-12.97-5.27ZM812.28,148.92h20.01v82.91h-20.01v-82.91Z"/>
  </g>
  <g>
    <path d="M337.47,256.3h21.2v79.35h-21.2v-79.35ZM353.46,315.99h14.8c2.37,0,4.46-.43,6.28-1.3,1.81-.87,3.18-2.13,4.09-3.79.91-1.66,1.36-3.63,1.36-5.92v-18c0-2.29-.46-4.26-1.36-5.92-.91-1.66-2.27-2.92-4.09-3.79-1.82-.87-3.91-1.3-6.28-1.3h-14.8v-19.66h15.28c6.4,0,12.06,1.26,17,3.79,4.93,2.53,8.74,6.04,11.43,10.54,2.68,4.5,4.03,9.79,4.03,15.87v18.95c0,6.08-1.34,11.37-4.03,15.87-2.69,4.5-6.5,8.02-11.43,10.54-4.94,2.53-10.6,3.79-17,3.79h-15.28v-19.66Z"/>
    <path d="M414.64,332.34c-3.44-3.16-5.15-7.42-5.15-12.79s1.78-9.81,5.33-13.09c3.55-3.28,8.21-4.92,13.98-4.92h18v12.08h-11.61c-1.66,0-2.96.38-3.91,1.13-.95.75-1.42,1.84-1.42,3.26,0,1.5.59,2.68,1.78,3.55,1.18.87,2.8,1.3,4.86,1.3,1.26,0,2.45-.2,3.55-.59,1.1-.4,1.95-.99,2.54-1.78.59-.79.89-1.66.89-2.61h3.55v11.37h-4.03c-1.19,2.45-3.06,4.36-5.63,5.74-2.57,1.38-5.63,2.07-9.18,2.07-5.61,0-10.13-1.58-13.56-4.74ZM444.3,327.01l-.83-.47v-30.44c0-1.66-.57-3-1.72-4.03-1.14-1.03-2.67-1.54-4.56-1.54-1.74,0-3.18.46-4.32,1.36-1.14.91-1.72,2.11-1.72,3.61v1.54h-19.42v-2.25c0-3.95,1.08-7.42,3.26-10.42,2.17-3,5.21-5.31,9.12-6.93,3.91-1.62,8.47-2.43,13.68-2.43s9.67.83,13.62,2.49c3.95,1.66,6.99,3.99,9.12,6.99,2.13,3,3.2,6.51,3.2,10.54v40.62h-19.42v-8.65Z"/>
    <path d="M475.45,276.43h20.13v59.22h-20.13v-59.22ZM492.27,285.91h4.5c.87-3.55,2.41-6.26,4.62-8.11,2.21-1.85,4.98-2.78,8.29-2.78h2.37v20.61h-3.32c-2.68,0-5.01.47-6.99,1.42-1.98.95-3.49,2.33-4.56,4.15-1.07,1.82-1.6,3.91-1.6,6.28h-3.32v-21.56Z"/>
    <path d="M521.16,252.75h20.13v82.91h-20.13v-82.91ZM537.87,294.91h4.86l12.32-18.48h23.21l-26.77,31.86-13.62,16.34v-29.73ZM542.25,309.83l13.15-13.62,23.21,39.44h-23.57l-12.79-25.82Z"/>
    <path d="M624.03,333.99c-4.86-2.05-8.57-4.92-11.13-8.59-2.57-3.67-3.85-7.92-3.85-12.73v-1.54h22.27v1.78c0,2.21.91,3.99,2.72,5.33,1.81,1.34,4.11,2.01,6.87,2.01,1.5,0,2.94-.27,4.32-.83,1.38-.55,2.45-1.24,3.2-2.07.75-.83,1.13-1.87,1.13-3.14,0-1.5-.57-2.74-1.72-3.73-1.14-.99-2.57-1.83-4.26-2.55-1.7-.71-4.2-1.58-7.52-2.61-5.37-1.74-9.81-3.43-13.33-5.09s-6.57-4.2-9.18-7.64c-2.61-3.43-3.91-7.88-3.91-13.32,0-5.13,1.26-9.51,3.79-13.15,2.53-3.63,6.12-6.41,10.78-8.35,4.66-1.93,9.95-2.9,15.87-2.9,6.24,0,11.62.97,16.17,2.9,4.54,1.94,8.07,4.64,10.6,8.11,2.53,3.48,3.79,7.5,3.79,12.08v1.54h-22.03v-1.54c0-1.9-.79-3.41-2.37-4.56-1.58-1.14-3.63-1.72-6.16-1.72-1.66,0-3.08.24-4.26.71-1.18.47-2.11,1.13-2.78,1.95-.67.83-1,1.83-1,3.02,0,1.34.55,2.49,1.66,3.43,1.1.95,2.53,1.78,4.26,2.49,1.73.71,4.19,1.54,7.34,2.49,5.37,1.5,9.83,3.08,13.38,4.74,3.55,1.66,6.63,4.23,9.24,7.7,2.6,3.48,3.91,7.98,3.91,13.5,0,5.21-1.27,9.71-3.79,13.5-2.53,3.79-6.14,6.71-10.84,8.76-4.7,2.05-10.17,3.08-16.4,3.08s-11.9-1.03-16.76-3.08Z"/>
    <path d="M682.35,252.75h20.13v82.91h-20.13v-82.91ZM699.06,294.91h4.86l12.32-18.48h23.21l-26.77,31.86-13.62,16.34v-29.73ZM703.44,309.83l13.15-13.62,23.21,39.44h-23.57l-12.79-25.82Z"/>
    <path d="M749.27,340.39h8.53c1.58,0,2.88-.32,3.91-.95,1.03-.63,1.78-1.66,2.25-3.08l.95-2.84h-5.33l-16.82-57.09h22.15l7.22,36.6h2.01l7.11-36.6h21.32l-19.78,66.21c-1.42,4.81-3.75,8.41-6.99,10.78-3.24,2.37-7.54,3.55-12.91,3.55h-13.62v-16.58Z"/>
  </g>
  <g>
    <path d="M337.47,364.49h21.2v79.35h-21.2v-79.35ZM353.46,401.32h18.47c2.68,0,4.84-.75,6.46-2.25,1.62-1.5,2.43-3.55,2.43-6.16,0-2.84-.81-5.01-2.43-6.51-1.62-1.5-3.77-2.25-6.46-2.25h-18.47v-19.66h20.61c5.53,0,10.4,1.13,14.63,3.38,4.22,2.25,7.48,5.51,9.77,9.77,2.29,4.26,3.44,9.16,3.44,14.69s-1.15,10.58-3.44,14.92-5.53,7.72-9.71,10.13c-4.19,2.41-9.08,3.61-14.69,3.61h-20.61v-19.66ZM365.07,415.65l19.9-4.38,19.07,32.57h-24.99l-13.98-28.19Z"/>
    <path d="M422.57,442.18c-4.14-2.05-7.34-4.98-9.59-8.77-2.25-3.79-3.38-8.13-3.38-13.03v-12.32c0-4.9,1.13-9.24,3.38-13.03,2.25-3.79,5.41-6.71,9.47-8.76,4.06-2.05,8.74-3.08,14.03-3.08s10.09,1.05,14.15,3.14c4.06,2.09,7.22,5.07,9.47,8.94,2.25,3.87,3.38,8.29,3.38,13.26v11.61h-38.85v-12.32h20.96l-2.37,2.6v-5.21c0-1.97-.61-3.55-1.84-4.74-1.22-1.18-2.86-1.78-4.92-1.78s-3.69.57-4.92,1.72c-1.22,1.14-1.83,2.74-1.83,4.8v18c0,1.98.65,3.55,1.95,4.74,1.3,1.19,3.06,1.78,5.27,1.78,1.97,0,3.51-.4,4.62-1.19,1.1-.79,1.66-1.85,1.66-3.2v-.47h20.25v.36c0,3.95-1.13,7.44-3.38,10.48-2.25,3.04-5.39,5.39-9.41,7.05-4.03,1.66-8.65,2.49-13.86,2.49s-10.13-1.03-14.27-3.08Z"/>
    <path d="M483.5,442.89c-3.95-1.58-6.95-3.79-9-6.63-2.05-2.84-3.08-6.12-3.08-9.83v-.95h19.78v1.07c0,1.34.53,2.45,1.6,3.32,1.07.87,2.51,1.3,4.32,1.3,1.26,0,2.31-.13,3.14-.41.83-.27,1.48-.69,1.95-1.24.47-.55.71-1.18.71-1.89,0-.95-.46-1.78-1.36-2.49s-2.07-1.34-3.49-1.9c-1.42-.55-3.2-1.07-5.33-1.54-4.26-1.26-7.8-2.51-10.6-3.73-2.8-1.22-5.23-3.14-7.28-5.74-2.06-2.6-3.08-5.96-3.08-10.07,0-6,2.25-10.66,6.75-13.98,4.5-3.32,10.5-4.97,18-4.97,5.05,0,9.49.73,13.33,2.19,3.83,1.46,6.75,3.53,8.76,6.22,2.01,2.68,3.02,5.8,3.02,9.36v1.18h-19.54v-.95c0-1.18-.47-2.13-1.42-2.84-.95-.71-2.25-1.07-3.91-1.07s-2.82.3-3.73.89c-.91.59-1.36,1.36-1.36,2.31,0,1.03.4,1.86,1.19,2.49.79.63,1.93,1.2,3.43,1.72,1.5.52,3.27,1.05,5.33,1.6,4.1,1.03,7.6,2.15,10.48,3.37,2.88,1.23,5.37,3.12,7.46,5.69s3.14,5.98,3.14,10.24c0,4.03-1.03,7.52-3.08,10.48-2.06,2.96-5,5.23-8.82,6.81-3.83,1.58-8.31,2.37-13.44,2.37s-9.91-.79-13.86-2.37Z"/>
    <path d="M543.26,442.18c-4.14-2.05-7.34-4.98-9.59-8.77-2.25-3.79-3.38-8.13-3.38-13.03v-12.32c0-4.9,1.13-9.24,3.38-13.03,2.25-3.79,5.41-6.71,9.47-8.76,4.06-2.05,8.74-3.08,14.03-3.08s10.09,1.05,14.15,3.14c4.06,2.09,7.22,5.07,9.47,8.94,2.25,3.87,3.38,8.29,3.38,13.26v11.61h-38.85v-12.32h20.96l-2.37,2.6v-5.21c0-1.97-.61-3.55-1.84-4.74-1.22-1.18-2.86-1.78-4.92-1.78s-3.69.57-4.92,1.72c-1.22,1.14-1.83,2.74-1.83,4.8v18c0,1.98.65,3.55,1.95,4.74,1.3,1.19,3.06,1.78,5.27,1.78,1.97,0,3.51-.4,4.62-1.19,1.1-.79,1.66-1.85,1.66-3.2v-.47h20.25v.36c0,3.95-1.13,7.44-3.38,10.48-2.25,3.04-5.39,5.39-9.41,7.05-4.03,1.66-8.65,2.49-13.86,2.49s-10.13-1.03-14.27-3.08Z"/>
    <path d="M594.95,384.62h20.13v59.22h-20.13v-59.22ZM611.77,394.1h4.5c.87-3.55,2.41-6.26,4.62-8.11s4.98-2.78,8.29-2.78h2.37v20.61h-3.32c-2.68,0-5.01.47-6.99,1.42-1.98.95-3.49,2.33-4.56,4.15-1.07,1.82-1.6,3.91-1.6,6.28h-3.32v-21.56Z"/>
    <path d="M636.99,384.62h22.15l7.34,36.48h1.18l7.34-36.48h21.44l-17.76,59.22h-24.16l-17.53-59.22Z"/>
    <path d="M713.09,442.18c-4.14-2.05-7.34-4.98-9.59-8.77-2.25-3.79-3.38-8.13-3.38-13.03v-12.32c0-4.9,1.13-9.24,3.38-13.03,2.25-3.79,5.41-6.71,9.47-8.76,4.06-2.05,8.74-3.08,14.03-3.08s10.09,1.05,14.15,3.14c4.06,2.09,7.22,5.07,9.47,8.94,2.25,3.87,3.38,8.29,3.38,13.26v11.61h-38.85v-12.32h20.96l-2.37,2.6v-5.21c0-1.97-.61-3.55-1.84-4.74-1.22-1.18-2.86-1.78-4.92-1.78s-3.69.57-4.92,1.72c-1.22,1.14-1.83,2.74-1.83,4.8v18c0,1.98.65,3.55,1.95,4.74,1.3,1.19,3.06,1.78,5.27,1.78,1.97,0,3.51-.4,4.62-1.19,1.1-.79,1.66-1.85,1.66-3.2v-.47h20.25v.36c0,3.95-1.13,7.44-3.38,10.48-2.25,3.04-5.39,5.39-9.41,7.05-4.03,1.66-8.65,2.49-13.86,2.49s-10.13-1.03-14.27-3.08Z"/>
  </g>
</svg>