<?xml version="1.0" encoding="UTF-8"?>
<svg id="Layer_1" data-name="Layer 1" xmlns="http://www.w3.org/2000/svg" viewBox="0 0 841.89 595.28">
  <defs>
    <style>
      .cls-1 {
        fill: #360082;
      }

      .cls-2 {
        fill: #0a0033;
      }

      .cls-3 {
        fill: #1f004f;
      }

      .cls-4 {
        fill: #7000bf;
      }
    </style>
  </defs>
  <g>
    <rect class="cls-1" x="10.79" y="298.94" width="302.94" height="75.73"/>
    <rect class="cls-4" x="10.79" y="374.68" width="302.94" height="75.73"/>
    <rect class="cls-3" x="10.79" y="223.21" width="302.94" height="75.73"/>
    <rect class="cls-2" x="10.79" y="147.48" width="302.94" height="75.73"/>
  </g>
  <g>
    <path d="M337.71,152.89h21.14v79.12h-21.14v-79.12ZM353.66,189.62h18.42c2.68,0,4.82-.75,6.44-2.24,1.61-1.49,2.42-3.54,2.42-6.14,0-2.83-.81-5-2.42-6.49-1.61-1.5-3.76-2.24-6.44-2.24h-18.42v-19.6h20.55c5.51,0,10.37,1.12,14.58,3.37,4.21,2.24,7.46,5.49,9.74,9.74,2.28,4.25,3.43,9.13,3.43,14.64s-1.14,10.55-3.43,14.88c-2.28,4.33-5.51,7.7-9.68,10.1-4.17,2.4-9.06,3.6-14.64,3.6h-20.55v-19.6ZM365.23,203.91l19.84-4.37,19.01,32.48h-24.92l-13.94-28.11Z"/>
    <path d="M414.18,164.23c-2.17-2.05-3.25-4.76-3.25-8.15s1.06-6.1,3.19-8.15c2.13-2.05,5-3.07,8.62-3.07s6.24,1,8.33,3.01c2.09,2.01,3.13,4.74,3.13,8.21s-1.05,6.1-3.13,8.15-4.86,3.07-8.33,3.07-6.4-1.02-8.56-3.07ZM412.47,172.97h20.08v59.05h-20.08v-59.05Z"/>
    <path d="M440.69,172.97h22.08l7.32,36.37h1.18l7.32-36.37h21.37l-17.71,59.05h-24.09l-17.48-59.05Z"/>
    <path d="M516.57,230.36c-4.13-2.05-7.32-4.96-9.56-8.74-2.24-3.78-3.37-8.11-3.37-12.99v-12.28c0-4.88,1.12-9.21,3.37-12.99,2.24-3.78,5.39-6.69,9.45-8.74,4.05-2.05,8.72-3.07,13.99-3.07s10.06,1.05,14.11,3.13c4.05,2.09,7.2,5.06,9.45,8.92,2.24,3.86,3.37,8.27,3.37,13.23v11.57h-38.74v-12.28h20.9l-2.36,2.6v-5.2c0-1.97-.61-3.54-1.83-4.72s-2.85-1.77-4.9-1.77-3.68.57-4.9,1.71c-1.22,1.14-1.83,2.74-1.83,4.78v17.95c0,1.97.65,3.54,1.95,4.72,1.3,1.18,3.05,1.77,5.25,1.77,1.97,0,3.5-.39,4.61-1.18,1.1-.79,1.65-1.85,1.65-3.19v-.47h20.19v.35c0,3.94-1.12,7.42-3.37,10.45-2.24,3.03-5.37,5.37-9.39,7.03-4.02,1.65-8.62,2.48-13.82,2.48s-10.1-1.02-14.23-3.07Z"/>
    <path d="M568.12,172.97h20.08v59.05h-20.08v-59.05ZM584.89,182.41h4.49c.86-3.54,2.4-6.24,4.6-8.09,2.2-1.85,4.96-2.78,8.27-2.78h2.36v20.55h-3.31c-2.68,0-5,.47-6.97,1.42-1.97.94-3.48,2.32-4.55,4.13-1.06,1.81-1.6,3.9-1.6,6.26h-3.31v-21.49Z"/>
    <path d="M618.37,227.23c-3.51-3.19-5.26-7.5-5.26-12.93v-64.95h20.08v59.64c0,1.42.41,2.54,1.24,3.36.83.83,1.91,1.24,3.25,1.24h3.78v18.42h-9.33c-5.67,0-10.26-1.59-13.76-4.78Z"/>
    <path d="M653.44,228.71c-3.43-3.15-5.14-7.4-5.14-12.75s1.77-9.78,5.31-13.05c3.54-3.27,8.19-4.9,13.94-4.9h17.95v12.05h-11.57c-1.65,0-2.95.37-3.9,1.12-.94.75-1.42,1.83-1.42,3.25,0,1.5.59,2.68,1.77,3.54,1.18.87,2.79,1.3,4.84,1.3,1.26,0,2.44-.2,3.54-.59,1.1-.39,1.95-.98,2.54-1.77.59-.79.89-1.65.89-2.6h3.54v11.34h-4.01c-1.18,2.44-3.05,4.35-5.61,5.73-2.56,1.38-5.61,2.07-9.15,2.07-5.59,0-10.1-1.57-13.52-4.72ZM683.02,223.39l-.83-.47v-30.35c0-1.65-.57-2.99-1.71-4.01-1.14-1.02-2.66-1.54-4.55-1.54-1.73,0-3.17.45-4.31,1.36-1.14.91-1.71,2.11-1.71,3.6v1.54h-19.37v-2.24c0-3.94,1.08-7.4,3.25-10.39,2.16-2.99,5.2-5.29,9.09-6.91,3.9-1.61,8.44-2.42,13.64-2.42s9.64.83,13.58,2.48c3.94,1.65,6.97,3.98,9.09,6.97,2.13,2.99,3.19,6.49,3.19,10.51v40.51h-19.37v-8.62Z"/>
    <path d="M714.07,172.97h20.08v59.05h-20.08v-59.05ZM745.31,191.98c-1.06-1.1-2.54-1.65-4.43-1.65-1.34,0-2.52.26-3.54.77-1.02.51-1.81,1.18-2.36,2.01-.55.83-.83,1.87-.83,3.13h-3.31v-15.47h4.49c1.18-2.68,3.09-4.88,5.73-6.61,2.64-1.73,5.77-2.6,9.39-2.6,4.88,0,8.88,1.56,11.99,4.66,3.11,3.11,4.66,7.07,4.66,11.87v43.93h-20.19v-35.66c0-1.81-.53-3.27-1.59-4.37Z"/>
    <path d="M782.39,228.18c-3.35-3.5-5.02-8.13-5.02-13.88v-23.62c0-5.75,1.67-10.37,5.02-13.88,3.34-3.5,7.65-5.26,12.93-5.26,3.39,0,6.4.87,9.03,2.6,2.64,1.73,4.43,3.94,5.37,6.61h4.72v15.82h-3.31c0-1.26-.3-2.36-.89-3.31-.59-.94-1.4-1.67-2.42-2.18-1.02-.51-2.24-.77-3.66-.77-2.05,0-3.68.59-4.9,1.77-1.22,1.18-1.83,2.72-1.83,4.61v11.57c0,1.89.61,3.42,1.83,4.61,1.22,1.18,2.85,1.77,4.9,1.77,1.42,0,2.64-.25,3.66-.77,1.02-.51,1.83-1.24,2.42-2.18.59-.95.89-2.05.89-3.31h3.31v15.82h-4.72c-.94,2.68-2.74,4.88-5.37,6.61-2.64,1.73-5.65,2.6-9.03,2.6-5.28,0-9.59-1.75-12.93-5.26ZM811.15,149.35h19.96v82.67h-19.96v-82.67Z"/>
  </g>
  <g>
    <path d="M337.71,256.42h21.14v79.12h-21.14v-79.12ZM353.66,315.94h14.76c2.36,0,4.45-.43,6.26-1.3,1.81-.86,3.17-2.13,4.07-3.78.9-1.65,1.36-3.62,1.36-5.9v-17.95c0-2.28-.45-4.25-1.36-5.9-.91-1.65-2.27-2.91-4.07-3.78-1.81-.86-3.9-1.3-6.26-1.3h-14.76v-19.6h15.23c6.38,0,12.03,1.26,16.95,3.78,4.92,2.52,8.72,6.02,11.4,10.51,2.67,4.49,4.01,9.76,4.01,15.82v18.89c0,6.06-1.34,11.34-4.01,15.82-2.68,4.49-6.48,7.99-11.4,10.51-4.92,2.52-10.57,3.78-16.95,3.78h-15.23v-19.6Z"/>
    <path d="M414.65,332.24c-3.43-3.15-5.14-7.4-5.14-12.75s1.77-9.78,5.31-13.05c3.54-3.27,8.19-4.9,13.94-4.9h17.95v12.05h-11.57c-1.65,0-2.95.37-3.9,1.12-.94.75-1.42,1.83-1.42,3.25,0,1.5.59,2.68,1.77,3.54,1.18.87,2.79,1.3,4.84,1.3,1.26,0,2.44-.2,3.54-.59,1.1-.39,1.95-.98,2.54-1.77.59-.79.89-1.65.89-2.6h3.54v11.34h-4.01c-1.18,2.44-3.05,4.35-5.61,5.73-2.56,1.38-5.61,2.07-9.15,2.07-5.59,0-10.1-1.57-13.52-4.72ZM444.24,326.92l-.83-.47v-30.35c0-1.65-.57-2.99-1.71-4.01-1.14-1.02-2.66-1.54-4.55-1.54-1.73,0-3.17.45-4.31,1.36-1.14.91-1.71,2.11-1.71,3.6v1.54h-19.37v-2.24c0-3.94,1.08-7.4,3.25-10.39,2.16-2.99,5.2-5.29,9.09-6.91,3.9-1.61,8.44-2.42,13.64-2.42s9.64.83,13.58,2.48c3.94,1.65,6.97,3.98,9.09,6.97,2.13,2.99,3.19,6.49,3.19,10.51v40.51h-19.37v-8.62Z"/>
    <path d="M475.29,276.5h20.08v59.05h-20.08v-59.05ZM492.06,285.94h4.49c.86-3.54,2.4-6.24,4.6-8.09,2.2-1.85,4.96-2.78,8.27-2.78h2.36v20.55h-3.31c-2.68,0-5,.47-6.97,1.42-1.97.94-3.48,2.32-4.55,4.13-1.06,1.81-1.6,3.9-1.6,6.26h-3.31v-21.49Z"/>
    <path d="M520.87,252.88h20.08v82.67h-20.08v-82.67ZM537.53,294.92h4.84l12.28-18.42h23.14l-26.69,31.77-13.58,16.3v-29.64ZM541.89,309.8l13.11-13.58,23.15,39.33h-23.5l-12.76-25.74Z"/>
    <path d="M623.44,333.89c-4.84-2.05-8.54-4.9-11.1-8.56-2.56-3.66-3.84-7.89-3.84-12.7v-1.54h22.2v1.77c0,2.2.9,3.98,2.71,5.31,1.81,1.34,4.09,2.01,6.85,2.01,1.49,0,2.93-.27,4.31-.83,1.38-.55,2.44-1.24,3.19-2.07.75-.83,1.12-1.87,1.12-3.13,0-1.49-.57-2.73-1.71-3.72-1.14-.98-2.56-1.83-4.25-2.54-1.69-.71-4.19-1.57-7.5-2.6-5.36-1.73-9.78-3.42-13.29-5.08s-6.55-4.19-9.15-7.62c-2.6-3.42-3.9-7.85-3.9-13.29,0-5.12,1.26-9.49,3.78-13.11,2.52-3.62,6.1-6.4,10.74-8.33,4.65-1.93,9.92-2.89,15.83-2.89,6.22,0,11.59.96,16.12,2.89,4.53,1.93,8.05,4.63,10.57,8.09,2.52,3.47,3.78,7.48,3.78,12.05v1.54h-21.96v-1.54c0-1.89-.79-3.4-2.36-4.55-1.58-1.14-3.62-1.71-6.14-1.71-1.65,0-3.07.24-4.25.71-1.18.47-2.11,1.12-2.78,1.95s-1,1.83-1,3.01c0,1.34.55,2.48,1.65,3.42,1.1.95,2.52,1.77,4.25,2.48,1.73.71,4.17,1.54,7.32,2.48,5.35,1.5,9.8,3.07,13.34,4.72,3.54,1.65,6.61,4.21,9.21,7.68,2.6,3.47,3.9,7.95,3.9,13.46,0,5.2-1.26,9.68-3.78,13.46-2.52,3.78-6.12,6.69-10.81,8.74-4.69,2.05-10.14,3.07-16.35,3.07s-11.87-1.02-16.71-3.07Z"/>
    <path d="M681.6,252.88h20.08v82.67h-20.08v-82.67ZM698.25,294.92h4.84l12.28-18.42h23.14l-26.69,31.77-13.58,16.3v-29.64ZM702.62,309.8l13.11-13.58,23.15,39.33h-23.5l-12.76-25.74Z"/>
    <path d="M748.32,340.27h8.5c1.58,0,2.87-.31,3.9-.94,1.02-.63,1.77-1.65,2.24-3.07l.95-2.83h-5.31l-16.77-56.92h22.08l7.2,36.49h2.01l7.09-36.49h21.26l-19.72,66.01c-1.42,4.8-3.74,8.39-6.97,10.75-3.23,2.36-7.52,3.54-12.87,3.54h-13.58v-16.53Z"/>
  </g>
  <g>
    <path d="M337.71,364.29h21.14v79.12h-21.14v-79.12ZM353.66,401.02h18.42c2.68,0,4.82-.75,6.44-2.24,1.61-1.49,2.42-3.54,2.42-6.14,0-2.83-.81-5-2.42-6.49-1.61-1.49-3.76-2.24-6.44-2.24h-18.42v-19.6h20.55c5.51,0,10.37,1.12,14.58,3.37,4.21,2.24,7.46,5.49,9.74,9.74,2.28,4.25,3.43,9.13,3.43,14.64s-1.14,10.55-3.43,14.88c-2.28,4.33-5.51,7.7-9.68,10.1-4.17,2.4-9.06,3.6-14.64,3.6h-20.55v-19.6ZM365.23,415.31l19.84-4.37,19.01,32.48h-24.92l-13.94-28.11Z"/>
    <path d="M422.57,441.76c-4.13-2.05-7.32-4.96-9.56-8.74-2.24-3.78-3.37-8.11-3.37-12.99v-12.28c0-4.88,1.12-9.21,3.37-12.99,2.24-3.78,5.39-6.69,9.45-8.74,4.05-2.05,8.72-3.07,13.99-3.07s10.06,1.05,14.11,3.13c4.05,2.09,7.2,5.06,9.45,8.92,2.24,3.86,3.37,8.27,3.37,13.23v11.57h-38.74v-12.28h20.9l-2.36,2.6v-5.2c0-1.97-.61-3.54-1.83-4.72-1.22-1.18-2.85-1.77-4.9-1.77s-3.68.57-4.9,1.71-1.83,2.73-1.83,4.78v17.95c0,1.97.65,3.54,1.95,4.72,1.3,1.18,3.05,1.77,5.25,1.77,1.97,0,3.5-.39,4.61-1.18,1.1-.79,1.65-1.85,1.65-3.19v-.47h20.19v.36c0,3.94-1.12,7.42-3.37,10.45-2.24,3.03-5.37,5.37-9.39,7.03-4.02,1.66-8.62,2.48-13.82,2.48s-10.1-1.03-14.23-3.07Z"/>
    <path d="M483.32,442.47c-3.94-1.58-6.93-3.78-8.98-6.61-2.05-2.84-3.07-6.1-3.07-9.8v-.94h19.72v1.06c0,1.34.53,2.44,1.6,3.31,1.06.87,2.5,1.3,4.31,1.3,1.26,0,2.3-.13,3.13-.41.83-.27,1.48-.69,1.95-1.24.47-.55.71-1.18.71-1.89,0-.94-.45-1.77-1.36-2.48s-2.07-1.34-3.48-1.89c-1.42-.55-3.19-1.06-5.31-1.54-4.25-1.26-7.77-2.5-10.57-3.72s-5.22-3.13-7.26-5.73c-2.05-2.6-3.07-5.94-3.07-10.04,0-5.98,2.24-10.63,6.73-13.94,4.49-3.31,10.47-4.96,17.95-4.96,5.04,0,9.47.73,13.29,2.18,3.82,1.46,6.73,3.52,8.74,6.2,2.01,2.68,3.01,5.79,3.01,9.33v1.18h-19.49v-.94c0-1.18-.47-2.13-1.42-2.84-.95-.71-2.24-1.06-3.9-1.06s-2.82.3-3.72.89c-.91.59-1.36,1.36-1.36,2.3,0,1.02.39,1.85,1.18,2.48.79.63,1.93,1.2,3.42,1.71,1.49.51,3.27,1.05,5.31,1.6,4.09,1.02,7.58,2.15,10.45,3.36,2.87,1.22,5.35,3.11,7.44,5.67s3.13,5.96,3.13,10.21c0,4.02-1.02,7.5-3.07,10.45-2.05,2.95-4.98,5.22-8.8,6.79-3.82,1.57-8.29,2.36-13.4,2.36s-9.88-.79-13.82-2.36Z"/>
    <path d="M542.9,441.76c-4.13-2.05-7.32-4.96-9.56-8.74-2.24-3.78-3.37-8.11-3.37-12.99v-12.28c0-4.88,1.12-9.21,3.37-12.99,2.24-3.78,5.39-6.69,9.45-8.74,4.05-2.05,8.72-3.07,13.99-3.07s10.06,1.05,14.11,3.13c4.05,2.09,7.2,5.06,9.45,8.92,2.24,3.86,3.37,8.27,3.37,13.23v11.57h-38.74v-12.28h20.9l-2.36,2.6v-5.2c0-1.97-.61-3.54-1.83-4.72-1.22-1.18-2.85-1.77-4.9-1.77s-3.68.57-4.9,1.71-1.83,2.73-1.83,4.78v17.95c0,1.97.65,3.54,1.95,4.72,1.3,1.18,3.05,1.77,5.25,1.77,1.97,0,3.5-.39,4.61-1.18,1.1-.79,1.65-1.85,1.65-3.19v-.47h20.19v.36c0,3.94-1.12,7.42-3.37,10.45-2.24,3.03-5.37,5.37-9.39,7.03-4.02,1.66-8.62,2.48-13.82,2.48s-10.1-1.03-14.23-3.07Z"/>
    <path d="M594.45,384.37h20.08v59.05h-20.08v-59.05ZM611.22,393.82h4.49c.86-3.54,2.4-6.24,4.6-8.09,2.2-1.85,4.96-2.78,8.27-2.78h2.36v20.55h-3.31c-2.68,0-5,.47-6.97,1.42-1.97.94-3.48,2.32-4.55,4.13-1.06,1.81-1.6,3.9-1.6,6.26h-3.31v-21.49Z"/>
    <path d="M636.37,384.37h22.08l7.32,36.37h1.18l7.32-36.37h21.37l-17.71,59.05h-24.09l-17.48-59.05Z"/>
    <path d="M712.25,441.76c-4.13-2.05-7.32-4.96-9.56-8.74-2.24-3.78-3.37-8.11-3.37-12.99v-12.28c0-4.88,1.12-9.21,3.37-12.99,2.24-3.78,5.39-6.69,9.45-8.74,4.05-2.05,8.72-3.07,13.99-3.07s10.06,1.05,14.11,3.13c4.05,2.09,7.2,5.06,9.45,8.92,2.24,3.86,3.37,8.27,3.37,13.23v11.57h-38.74v-12.28h20.9l-2.36,2.6v-5.2c0-1.97-.61-3.54-1.83-4.72-1.22-1.18-2.85-1.77-4.9-1.77s-3.68.57-4.9,1.71-1.83,2.73-1.83,4.78v17.95c0,1.97.65,3.54,1.95,4.72,1.3,1.18,3.05,1.77,5.25,1.77,1.97,0,3.5-.39,4.61-1.18,1.1-.79,1.65-1.85,1.65-3.19v-.47h20.19v.36c0,3.94-1.12,7.42-3.37,10.45-2.24,3.03-5.37,5.37-9.39,7.03-4.02,1.66-8.62,2.48-13.82,2.48s-10.1-1.03-14.23-3.07Z"/>
  </g>
</svg>