<?xml version="1.0" encoding="UTF-8"?>
<svg id="Layer_1" data-name="Layer 1" xmlns="http://www.w3.org/2000/svg" viewBox="0 0 841.89 595.28">
  <g>
    <path d="M31.9,73.77h33.34v124.78H31.9v-124.78ZM57.04,131.69h29.05c4.22,0,7.6-1.18,10.15-3.54,2.54-2.36,3.82-5.59,3.82-9.68,0-4.47-1.28-7.88-3.82-10.24-2.55-2.36-5.93-3.54-10.15-3.54h-29.05v-30.92h32.4c8.69,0,16.36,1.77,23,5.31,6.64,3.54,11.76,8.66,15.36,15.36,3.6,6.7,5.4,14.4,5.4,23.09s-1.8,16.64-5.4,23.47c-3.6,6.83-8.69,12.14-15.27,15.92-6.58,3.79-14.28,5.68-23.09,5.68h-32.4v-30.91ZM75.3,154.22l31.29-6.89,29.99,51.22h-39.3l-21.98-44.32Z"/>
    <path d="M152.49,91.65c-3.42-3.23-5.12-7.51-5.12-12.85s1.67-9.62,5.03-12.85c3.35-3.23,7.88-4.84,13.6-4.84s9.84,1.58,13.13,4.75c3.29,3.17,4.94,7.48,4.94,12.95s-1.65,9.62-4.94,12.85c-3.29,3.23-7.67,4.84-13.13,4.84s-10.09-1.61-13.5-4.84ZM149.79,105.43h31.66v93.12h-31.66v-93.12Z"/>
    <path d="M194.3,105.43h34.83l11.55,57.36h1.86l11.55-57.36h33.71l-27.93,93.12h-37.99l-27.57-93.12Z"/>
    <path d="M313.95,195.94c-6.52-3.23-11.55-7.82-15.08-13.78-3.54-5.96-5.31-12.79-5.31-20.49v-19.37c0-7.7,1.77-14.53,5.31-20.49,3.54-5.96,8.5-10.55,14.9-13.78,6.39-3.23,13.75-4.84,22.07-4.84s15.86,1.65,22.26,4.94c6.39,3.29,11.36,7.98,14.9,14.06,3.54,6.09,5.31,13.04,5.31,20.86v18.25h-61.09v-19.37h32.96l-3.72,4.1v-8.19c0-3.1-.96-5.59-2.89-7.45-1.92-1.86-4.5-2.79-7.73-2.79s-5.8.9-7.73,2.7c-1.92,1.8-2.88,4.31-2.88,7.54v28.31c0,3.11,1.02,5.59,3.07,7.45,2.05,1.86,4.81,2.79,8.29,2.79,3.1,0,5.52-.62,7.26-1.86,1.74-1.24,2.61-2.92,2.61-5.03v-.75h31.85v.56c0,6.21-1.77,11.7-5.31,16.48-3.54,4.78-8.47,8.47-14.8,11.08-6.34,2.61-13.6,3.91-21.79,3.91s-15.93-1.62-22.44-4.84Z"/>
    <path d="M395.25,105.43h31.66v93.12h-31.66v-93.12ZM421.7,120.33h7.08c1.36-5.59,3.79-9.84,7.26-12.76,3.47-2.92,7.82-4.38,13.04-4.38h3.72v32.41h-5.21c-4.22,0-7.88.74-10.99,2.24-3.11,1.49-5.49,3.66-7.17,6.52-1.68,2.86-2.52,6.15-2.52,9.87h-5.21v-33.9Z"/>
    <path d="M474.5,191.01c-5.53-5.03-8.29-11.83-8.29-20.39v-102.43h31.66v94.05c0,2.23.65,4,1.96,5.31,1.3,1.31,3.01,1.96,5.12,1.96h5.96v29.05h-14.71c-8.94,0-16.18-2.51-21.7-7.54Z"/>
    <path d="M529.8,193.33c-5.4-4.96-8.1-11.67-8.1-20.11s2.8-15.43,8.38-20.58c5.59-5.15,12.91-7.73,21.98-7.73h28.31v19h-18.25c-2.61,0-4.65.59-6.15,1.77-1.49,1.18-2.23,2.89-2.23,5.12,0,2.36.93,4.22,2.79,5.59,1.86,1.37,4.41,2.05,7.63,2.05,1.99,0,3.85-.31,5.59-.93,1.74-.62,3.07-1.55,4-2.79.93-1.24,1.4-2.61,1.4-4.1h5.59v17.88h-6.33c-1.86,3.85-4.82,6.86-8.85,9.03-4.04,2.17-8.85,3.26-14.43,3.26-8.82,0-15.93-2.48-21.32-7.45ZM576.45,184.95l-1.3-.74v-47.86c0-2.61-.9-4.72-2.7-6.33-1.8-1.61-4.19-2.42-7.17-2.42-2.73,0-5,.72-6.8,2.14-1.8,1.43-2.7,3.32-2.7,5.68v2.42h-30.54v-3.54c0-6.21,1.71-11.67,5.12-16.39,3.41-4.72,8.2-8.35,14.34-10.89,6.15-2.54,13.31-3.82,21.51-3.82s15.21,1.3,21.42,3.91c6.21,2.61,10.99,6.27,14.34,10.99,3.35,4.72,5.03,10.24,5.03,16.58v63.88h-30.54v-13.6Z"/>
    <path d="M625.43,105.43h31.66v93.12h-31.66v-93.12ZM674.69,135.41c-1.67-1.74-4-2.61-6.98-2.61-2.11,0-3.97.4-5.59,1.21-1.61.81-2.86,1.86-3.72,3.17-.87,1.3-1.3,2.95-1.3,4.94h-5.21v-24.4h7.08c1.86-4.22,4.87-7.7,9.03-10.43,4.16-2.73,9.09-4.1,14.81-4.1,7.7,0,14,2.45,18.9,7.36,4.9,4.91,7.35,11.15,7.35,18.72v69.28h-31.85v-56.24c0-2.86-.84-5.15-2.51-6.89Z"/>
    <path d="M733.17,192.49c-5.28-5.52-7.92-12.82-7.92-21.88v-37.25c0-9.06,2.64-16.36,7.92-21.88,5.27-5.52,12.07-8.29,20.39-8.29,5.34,0,10.09,1.37,14.25,4.1,4.16,2.73,6.99,6.21,8.48,10.43h7.45v24.96h-5.21c0-1.99-.47-3.72-1.4-5.22-.93-1.49-2.21-2.64-3.82-3.44-1.61-.81-3.54-1.21-5.77-1.21-3.23,0-5.81.93-7.73,2.79-1.93,1.86-2.89,4.28-2.89,7.26v18.25c0,2.98.96,5.4,2.89,7.26,1.92,1.86,4.5,2.79,7.73,2.79,2.23,0,4.16-.4,5.77-1.21,1.61-.81,2.89-1.96,3.82-3.44.93-1.49,1.4-3.23,1.4-5.22h5.21v24.96h-7.45c-1.49,4.22-4.32,7.7-8.48,10.43-4.16,2.73-8.91,4.1-14.25,4.1-8.32,0-15.12-2.76-20.39-8.29ZM778.52,68.18h31.47v130.37h-31.47V68.18Z"/>
  </g>
  <g>
    <path d="M31.9,237.03h33.34v124.78H31.9v-124.78ZM57.04,330.9h23.28c3.72,0,7.01-.68,9.87-2.05,2.85-1.36,4.99-3.35,6.43-5.96,1.42-2.61,2.14-5.71,2.14-9.31v-28.31c0-3.6-.72-6.7-2.14-9.31-1.43-2.61-3.57-4.59-6.43-5.96-2.86-1.36-6.15-2.05-9.87-2.05h-23.28v-30.92h24.02c10.06,0,18.96,1.99,26.73,5.96,7.76,3.97,13.75,9.5,17.97,16.58,4.22,7.08,6.33,15.4,6.33,24.96v29.8c0,9.56-2.11,17.88-6.33,24.96-4.22,7.08-10.22,12.6-17.97,16.58-7.76,3.97-16.67,5.96-26.73,5.96h-24.02v-30.91Z"/>
    <path d="M153.24,356.6c-5.4-4.96-8.1-11.67-8.1-20.11s2.8-15.43,8.38-20.58c5.59-5.15,12.91-7.73,21.98-7.73h28.31v19h-18.25c-2.61,0-4.65.59-6.15,1.77-1.49,1.18-2.23,2.89-2.23,5.12,0,2.36.93,4.22,2.79,5.59,1.86,1.37,4.41,2.05,7.63,2.05,1.99,0,3.85-.31,5.59-.93,1.74-.62,3.07-1.55,4-2.79.93-1.24,1.4-2.61,1.4-4.1h5.59v17.88h-6.33c-1.86,3.85-4.82,6.86-8.85,9.03-4.04,2.17-8.85,3.26-14.43,3.26-8.82,0-15.93-2.48-21.32-7.45ZM199.89,348.22l-1.3-.74v-47.86c0-2.61-.9-4.72-2.7-6.33-1.8-1.61-4.19-2.42-7.17-2.42-2.73,0-5,.72-6.8,2.14-1.8,1.43-2.7,3.32-2.7,5.68v2.42h-30.54v-3.54c0-6.21,1.71-11.67,5.12-16.39,3.41-4.72,8.2-8.35,14.34-10.89,6.15-2.54,13.31-3.82,21.51-3.82s15.21,1.3,21.42,3.91c6.21,2.61,10.99,6.27,14.34,10.99,3.35,4.72,5.03,10.24,5.03,16.58v63.88h-30.54v-13.6Z"/>
    <path d="M248.86,268.69h31.66v93.12h-31.66v-93.12ZM275.31,283.59h7.08c1.36-5.59,3.79-9.84,7.26-12.76,3.47-2.92,7.82-4.38,13.04-4.38h3.72v32.41h-5.21c-4.22,0-7.88.74-10.99,2.24-3.11,1.49-5.49,3.66-7.17,6.52-1.68,2.86-2.52,6.15-2.52,9.87h-5.21v-33.9Z"/>
    <path d="M320.75,231.45h31.66v130.37h-31.66v-130.37ZM347.01,297.75h7.63l19.37-29.05h36.5l-42.09,50.1-21.42,25.7v-46.75ZM353.9,321.21l20.67-21.42,36.5,62.02h-37.06l-20.12-40.6Z"/>
    <path d="M482.5,359.21c-7.63-3.23-13.47-7.73-17.51-13.5-4.04-5.77-6.05-12.45-6.05-20.02v-2.42h35.01v2.79c0,3.48,1.42,6.27,4.28,8.38,2.85,2.11,6.46,3.17,10.8,3.17,2.36,0,4.62-.43,6.8-1.3,2.17-.87,3.85-1.96,5.03-3.26,1.18-1.3,1.77-2.95,1.77-4.94,0-2.36-.9-4.31-2.7-5.87-1.8-1.55-4.04-2.89-6.7-4-2.67-1.12-6.61-2.48-11.83-4.1-8.45-2.73-15.43-5.4-20.95-8.01s-10.34-6.61-14.43-12.01c-4.1-5.4-6.15-12.38-6.15-20.95,0-8.07,1.99-14.96,5.96-20.67,3.97-5.71,9.62-10.09,16.94-13.13,7.33-3.04,15.64-4.56,24.96-4.56,9.81,0,18.28,1.52,25.42,4.56,7.14,3.04,12.69,7.3,16.67,12.76,3.97,5.47,5.96,11.8,5.96,19v2.42h-34.64v-2.42c0-2.98-1.24-5.37-3.72-7.17-2.49-1.8-5.71-2.7-9.68-2.7-2.61,0-4.84.37-6.71,1.12-1.86.74-3.32,1.77-4.38,3.07-1.05,1.3-1.58,2.89-1.58,4.75,0,2.11.86,3.91,2.61,5.4,1.74,1.49,3.97,2.79,6.7,3.91,2.73,1.12,6.58,2.42,11.55,3.91,8.44,2.36,15.46,4.84,21.04,7.45,5.59,2.61,10.43,6.64,14.53,12.11,4.1,5.47,6.15,12.54,6.15,21.23,0,8.19-1.99,15.27-5.96,21.23-3.97,5.96-9.66,10.55-17.04,13.78-7.39,3.23-15.99,4.84-25.79,4.84s-18.72-1.62-26.35-4.84Z"/>
    <path d="M574.21,231.45h31.66v130.37h-31.66v-130.37ZM600.48,297.75h7.63l19.37-29.05h36.5l-42.09,50.1-21.42,25.7v-46.75ZM607.36,321.21l20.67-21.42,36.5,62.02h-37.06l-20.12-40.6Z"/>
    <path d="M679.44,369.26h13.41c2.49,0,4.53-.5,6.15-1.49,1.61-1,2.8-2.61,3.54-4.84l1.49-4.47h-8.38l-26.45-89.77h34.83l11.36,57.55h3.16l11.18-57.55h33.52l-31.1,104.11c-2.24,7.57-5.9,13.22-10.99,16.95-5.09,3.72-11.86,5.59-20.3,5.59h-21.42v-26.07Z"/>
  </g>
  <g>
    <path d="M31.9,407.16h33.34v124.78H31.9v-124.78ZM57.04,465.07h29.05c4.22,0,7.6-1.18,10.15-3.54,2.54-2.36,3.82-5.59,3.82-9.68,0-4.47-1.28-7.88-3.82-10.24-2.55-2.36-5.93-3.54-10.15-3.54h-29.05v-30.91h32.4c8.69,0,16.36,1.77,23,5.31,6.64,3.54,11.76,8.66,15.36,15.36,3.6,6.7,5.4,14.4,5.4,23.09s-1.8,16.64-5.4,23.47c-3.6,6.83-8.69,12.14-15.27,15.92-6.58,3.79-14.28,5.68-23.09,5.68h-32.4v-30.91ZM75.3,487.61l31.29-6.89,29.99,51.22h-39.3l-21.98-44.32Z"/>
    <path d="M165.71,529.33c-6.52-3.23-11.55-7.82-15.08-13.78-3.54-5.96-5.31-12.78-5.31-20.48v-19.37c0-7.7,1.77-14.53,5.31-20.49,3.54-5.96,8.5-10.55,14.9-13.78,6.39-3.23,13.75-4.84,22.07-4.84s15.86,1.65,22.26,4.93c6.39,3.29,11.36,7.98,14.9,14.06,3.54,6.09,5.31,13.04,5.31,20.86v18.25h-61.09v-19.37h32.96l-3.72,4.1v-8.2c0-3.1-.96-5.59-2.89-7.45-1.92-1.86-4.5-2.79-7.73-2.79s-5.8.9-7.73,2.7c-1.92,1.8-2.88,4.31-2.88,7.54v28.31c0,3.11,1.02,5.59,3.07,7.45,2.05,1.86,4.81,2.8,8.29,2.8,3.1,0,5.52-.62,7.26-1.86,1.74-1.24,2.61-2.91,2.61-5.03v-.75h31.85v.56c0,6.21-1.77,11.7-5.31,16.48-3.54,4.78-8.47,8.47-14.8,11.08-6.34,2.61-13.6,3.91-21.79,3.91s-15.93-1.62-22.44-4.84Z"/>
    <path d="M261.53,530.45c-6.21-2.49-10.93-5.96-14.16-10.43-3.23-4.47-4.84-9.62-4.84-15.46v-1.49h31.1v1.68c0,2.11.84,3.85,2.52,5.21,1.67,1.37,3.94,2.05,6.8,2.05,1.99,0,3.63-.21,4.94-.65,1.3-.43,2.33-1.08,3.07-1.96.74-.87,1.12-1.86,1.12-2.98,0-1.49-.72-2.79-2.14-3.91s-3.26-2.11-5.49-2.98c-2.24-.87-5.03-1.67-8.38-2.42-6.7-1.98-12.26-3.94-16.67-5.87-4.41-1.92-8.23-4.93-11.45-9.03-3.23-4.1-4.84-9.37-4.84-15.83,0-9.43,3.54-16.76,10.61-21.98,7.08-5.21,16.51-7.82,28.31-7.82,7.95,0,14.93,1.15,20.95,3.44,6.02,2.3,10.62,5.56,13.78,9.78,3.17,4.22,4.75,9.12,4.75,14.71v1.86h-30.73v-1.49c0-1.86-.74-3.35-2.23-4.47-1.49-1.12-3.54-1.67-6.15-1.67s-4.44.47-5.87,1.4c-1.43.93-2.14,2.14-2.14,3.63,0,1.61.62,2.92,1.86,3.91,1.24,1,3.04,1.89,5.4,2.7,2.36.81,5.15,1.65,8.38,2.52,6.45,1.61,11.95,3.38,16.48,5.3,4.53,1.93,8.44,4.91,11.73,8.94,3.29,4.04,4.94,9.4,4.94,16.11,0,6.34-1.61,11.83-4.84,16.48-3.23,4.66-7.85,8.23-13.88,10.71-6.02,2.48-13.07,3.72-21.14,3.72s-15.58-1.24-21.79-3.72Z"/>
    <path d="M355.49,529.33c-6.52-3.23-11.55-7.82-15.08-13.78-3.54-5.96-5.31-12.78-5.31-20.48v-19.37c0-7.7,1.77-14.53,5.31-20.49,3.54-5.96,8.5-10.55,14.9-13.78,6.39-3.23,13.75-4.84,22.07-4.84s15.86,1.65,22.26,4.93c6.39,3.29,11.36,7.98,14.9,14.06,3.54,6.09,5.31,13.04,5.31,20.86v18.25h-61.09v-19.37h32.96l-3.72,4.1v-8.2c0-3.1-.96-5.59-2.89-7.45-1.92-1.86-4.5-2.79-7.73-2.79s-5.8.9-7.73,2.7c-1.92,1.8-2.88,4.31-2.88,7.54v28.31c0,3.11,1.02,5.59,3.07,7.45,2.05,1.86,4.81,2.8,8.29,2.8,3.1,0,5.52-.62,7.26-1.86,1.74-1.24,2.61-2.91,2.61-5.03v-.75h31.85v.56c0,6.21-1.77,11.7-5.31,16.48-3.54,4.78-8.47,8.47-14.8,11.08-6.34,2.61-13.6,3.91-21.79,3.91s-15.93-1.62-22.44-4.84Z"/>
    <path d="M436.78,438.82h31.66v93.12h-31.66v-93.12ZM463.22,453.72h7.08c1.36-5.59,3.79-9.84,7.26-12.76,3.47-2.92,7.82-4.38,13.04-4.38h3.72v32.4h-5.21c-4.22,0-7.88.75-10.99,2.24-3.11,1.49-5.49,3.66-7.17,6.52-1.68,2.86-2.52,6.15-2.52,9.87h-5.21v-33.9Z"/>
    <path d="M502.89,438.82h34.83l11.55,57.36h1.86l11.55-57.36h33.71l-27.93,93.12h-37.99l-27.57-93.12Z"/>
    <path d="M622.55,529.33c-6.52-3.23-11.55-7.82-15.08-13.78-3.54-5.96-5.31-12.78-5.31-20.48v-19.37c0-7.7,1.77-14.53,5.31-20.49,3.54-5.96,8.5-10.55,14.9-13.78,6.39-3.23,13.75-4.84,22.07-4.84s15.86,1.65,22.26,4.93c6.39,3.29,11.36,7.98,14.9,14.06,3.54,6.09,5.31,13.04,5.31,20.86v18.25h-61.09v-19.37h32.96l-3.72,4.1v-8.2c0-3.1-.96-5.59-2.89-7.45-1.92-1.86-4.5-2.79-7.73-2.79s-5.8.9-7.73,2.7c-1.92,1.8-2.88,4.31-2.88,7.54v28.31c0,3.11,1.02,5.59,3.07,7.45,2.05,1.86,4.81,2.8,8.29,2.8,3.1,0,5.52-.62,7.26-1.86,1.74-1.24,2.61-2.91,2.61-5.03v-.75h31.85v.56c0,6.21-1.77,11.7-5.31,16.48-3.54,4.78-8.47,8.47-14.8,11.08-6.34,2.61-13.6,3.91-21.79,3.91s-15.93-1.62-22.44-4.84Z"/>
  </g>
</svg>