<?xml version="1.0" encoding="UTF-8"?>
<svg id="Layer_1" data-name="Layer 1" xmlns="http://www.w3.org/2000/svg" viewBox="0 0 841.89 595.28">
  <defs>
    <style>
      .cls-1 {
        fill: #102e42;
      }

      .cls-2 {
        fill: #a55c3e;
      }

      .cls-3 {
        fill: #572618;
      }

      .cls-4 {
        fill: #fff;
      }

      .cls-5 {
        fill: #303b59;
      }
    </style>
  </defs>
  <g>
    <rect class="cls-3" x="35.86" y="297.64" width="770.18" height="126.29"/>
    <rect class="cls-2" x="35.86" y="423.93" width="770.18" height="126.29"/>
    <rect class="cls-5" x="35.86" y="171.35" width="770.18" height="126.29"/>
    <rect class="cls-1" x="35.86" y="45.06" width="770.18" height="126.29"/>
  </g>
  <g>
    <path class="cls-4" d="M73.32,102.76h29.86v111.79h-29.86v-111.79ZM95.84,154.65h26.03c3.78,0,6.81-1.06,9.09-3.17,2.28-2.11,3.42-5.01,3.42-8.68,0-4-1.14-7.06-3.42-9.18-2.28-2.11-5.31-3.17-9.09-3.17h-26.03v-27.7h29.03c7.78,0,14.65,1.59,20.6,4.76,5.95,3.17,10.54,7.76,13.76,13.76,3.22,6.01,4.84,12.9,4.84,20.69s-1.62,14.91-4.84,21.02c-3.22,6.12-7.79,10.87-13.68,14.27-5.9,3.39-12.79,5.09-20.69,5.09h-29.03v-27.7ZM112.19,174.84l28.03-6.17,26.86,45.88h-35.2l-19.69-39.71Z"/>
    <path class="cls-4" d="M181.35,118.78c-3.06-2.89-4.59-6.73-4.59-11.51s1.5-8.62,4.5-11.51c3-2.89,7.06-4.34,12.18-4.34s8.82,1.42,11.76,4.25c2.95,2.84,4.42,6.7,4.42,11.6s-1.48,8.62-4.42,11.51-6.87,4.34-11.76,4.34-9.04-1.44-12.09-4.34ZM178.93,131.12h28.36v83.42h-28.36v-83.42Z"/>
    <path class="cls-4" d="M218.8,131.12h31.2l10.34,51.39h1.67l10.35-51.39h30.2l-25.02,83.42h-34.04l-24.69-83.42Z"/>
    <path class="cls-4" d="M326,212.21c-5.84-2.89-10.35-7.01-13.51-12.35-3.17-5.34-4.76-11.45-4.76-18.35v-17.35c0-6.9,1.59-13.01,4.76-18.35,3.17-5.34,7.62-9.45,13.35-12.35,5.73-2.89,12.32-4.34,19.77-4.34s14.21,1.48,19.94,4.42c5.73,2.95,10.18,7.15,13.35,12.6,3.17,5.45,4.76,11.68,4.76,18.69v16.35h-54.72v-17.35h29.53l-3.34,3.67v-7.34c0-2.78-.86-5.01-2.59-6.67-1.72-1.67-4.03-2.5-6.92-2.5s-5.2.81-6.92,2.42c-1.72,1.61-2.58,3.86-2.58,6.76v25.36c0,2.78.92,5.01,2.75,6.67,1.83,1.67,4.31,2.5,7.42,2.5,2.78,0,4.95-.55,6.51-1.67,1.55-1.11,2.34-2.61,2.34-4.5v-.67h28.53v.5c0,5.56-1.59,10.49-4.76,14.77-3.17,4.28-7.59,7.59-13.26,9.93-5.68,2.34-12.18,3.5-19.52,3.5s-14.27-1.45-20.11-4.34Z"/>
    <path class="cls-4" d="M398.83,131.12h28.36v83.42h-28.36v-83.42ZM422.52,144.47h6.34c1.22-5.01,3.39-8.81,6.5-11.43,3.11-2.61,7.01-3.92,11.68-3.92h3.34v29.03h-4.67c-3.78,0-7.06.67-9.84,2-2.78,1.33-4.92,3.28-6.42,5.84-1.5,2.56-2.25,5.51-2.25,8.84h-4.67v-30.37Z"/>
    <path class="cls-4" d="M469.82,207.79c-4.95-4.51-7.43-10.6-7.43-18.27v-91.76h28.36v84.26c0,2,.58,3.59,1.75,4.75,1.17,1.17,2.7,1.75,4.59,1.75h5.34v26.03h-13.18c-8.01,0-14.49-2.25-19.44-6.76Z"/>
    <path class="cls-4" d="M519.37,209.87c-4.84-4.45-7.26-10.45-7.26-18.02s2.51-13.82,7.51-18.44c5.01-4.61,11.57-6.92,19.69-6.92h25.36v17.02h-16.35c-2.34,0-4.17.53-5.51,1.59-1.33,1.06-2,2.59-2,4.59,0,2.11.83,3.78,2.5,5.01,1.67,1.23,3.95,1.83,6.84,1.83,1.78,0,3.45-.28,5.01-.83,1.55-.56,2.75-1.39,3.58-2.5.84-1.11,1.25-2.34,1.25-3.67h5.01v16.02h-5.67c-1.67,3.45-4.31,6.15-7.93,8.09-3.62,1.95-7.93,2.92-12.93,2.92-7.9,0-14.27-2.23-19.1-6.68ZM561.16,202.37l-1.17-.67v-42.88c0-2.34-.81-4.22-2.42-5.67-1.61-1.44-3.75-2.17-6.42-2.17-2.45,0-4.48.64-6.09,1.92-1.61,1.28-2.42,2.98-2.42,5.09v2.17h-27.36v-3.17c0-5.56,1.53-10.45,4.59-14.68,3.06-4.22,7.34-7.48,12.85-9.76,5.51-2.28,11.93-3.42,19.27-3.42s13.62,1.17,19.19,3.5c5.56,2.34,9.84,5.62,12.85,9.84,3,4.23,4.5,9.18,4.5,14.85v57.23h-27.36v-12.18Z"/>
    <path class="cls-4" d="M605.04,131.12h28.36v83.42h-28.36v-83.42ZM649.17,157.98c-1.5-1.56-3.59-2.34-6.26-2.34-1.89,0-3.56.36-5.01,1.08-1.45.72-2.56,1.67-3.34,2.84-.78,1.17-1.17,2.64-1.17,4.42h-4.67v-21.86h6.34c1.67-3.78,4.36-6.9,8.09-9.34,3.73-2.45,8.15-3.67,13.27-3.67,6.89,0,12.54,2.2,16.93,6.59,4.39,4.4,6.59,9.98,6.59,16.77v62.07h-28.53v-50.39c0-2.56-.75-4.61-2.25-6.17Z"/>
    <path class="cls-4" d="M701.56,209.12c-4.73-4.95-7.09-11.48-7.09-19.6v-33.37c0-8.12,2.36-14.65,7.09-19.6,4.73-4.95,10.81-7.43,18.27-7.43,4.78,0,9.04,1.23,12.76,3.67,3.73,2.45,6.26,5.56,7.59,9.34h6.67v22.36h-4.67c0-1.78-.42-3.34-1.25-4.67-.84-1.33-1.98-2.36-3.42-3.09-1.45-.72-3.17-1.08-5.17-1.08-2.9,0-5.2.83-6.92,2.5-1.73,1.67-2.59,3.84-2.59,6.51v16.35c0,2.67.86,4.84,2.59,6.51,1.72,1.67,4.03,2.5,6.92,2.5,2,0,3.72-.36,5.17-1.08,1.45-.72,2.59-1.75,3.42-3.09.84-1.34,1.25-2.89,1.25-4.67h4.67v22.36h-6.67c-1.33,3.78-3.87,6.9-7.59,9.34-3.73,2.45-7.98,3.67-12.76,3.67-7.45,0-13.54-2.47-18.27-7.43ZM742.18,97.75h28.19v116.79h-28.19v-116.79Z"/>
  </g>
  <g>
    <path class="cls-4" d="M73.32,249.02h29.86v111.79h-29.86v-111.79ZM95.84,333.11h20.86c3.34,0,6.28-.61,8.84-1.84,2.56-1.22,4.47-3,5.76-5.34,1.28-2.34,1.92-5.11,1.92-8.34v-25.36c0-3.22-.64-6.01-1.92-8.34-1.28-2.34-3.2-4.11-5.76-5.34-2.56-1.22-5.51-1.83-8.84-1.83h-20.86v-27.7h21.52c9.01,0,16.99,1.78,23.94,5.34,6.95,3.56,12.31,8.51,16.1,14.85,3.78,6.34,5.67,13.79,5.67,22.36v26.69c0,8.57-1.89,16.02-5.67,22.36-3.78,6.34-9.15,11.29-16.1,14.85-6.96,3.56-14.93,5.34-23.94,5.34h-21.52v-27.7Z"/>
    <path class="cls-4" d="M182.02,356.14c-4.84-4.45-7.26-10.45-7.26-18.02s2.51-13.82,7.51-18.44c5.01-4.61,11.57-6.92,19.69-6.92h25.36v17.02h-16.35c-2.34,0-4.17.53-5.51,1.59-1.33,1.06-2,2.59-2,4.59,0,2.11.83,3.78,2.5,5.01,1.67,1.23,3.95,1.83,6.84,1.83,1.78,0,3.45-.28,5.01-.83,1.55-.56,2.75-1.39,3.58-2.5.84-1.11,1.25-2.34,1.25-3.67h5.01v16.02h-5.67c-1.67,3.45-4.31,6.15-7.93,8.09-3.62,1.95-7.93,2.92-12.93,2.92-7.9,0-14.27-2.23-19.1-6.68ZM223.81,348.63l-1.17-.67v-42.88c0-2.34-.81-4.22-2.42-5.67-1.61-1.44-3.75-2.17-6.42-2.17-2.45,0-4.48.64-6.09,1.92-1.61,1.28-2.42,2.98-2.42,5.09v2.17h-27.36v-3.17c0-5.56,1.53-10.45,4.59-14.68,3.06-4.22,7.34-7.48,12.85-9.76,5.51-2.28,11.93-3.42,19.27-3.42s13.62,1.17,19.19,3.5c5.56,2.34,9.84,5.62,12.85,9.84,3,4.23,4.5,9.18,4.5,14.85v57.23h-27.36v-12.18Z"/>
    <path class="cls-4" d="M267.69,277.39h28.36v83.42h-28.36v-83.42ZM291.38,290.73h6.34c1.22-5.01,3.39-8.81,6.5-11.43,3.11-2.61,7.01-3.92,11.68-3.92h3.34v29.03h-4.67c-3.78,0-7.06.67-9.84,2-2.78,1.33-4.92,3.28-6.42,5.84-1.5,2.56-2.25,5.51-2.25,8.84h-4.67v-30.37Z"/>
    <path class="cls-4" d="M332.09,244.02h28.36v116.79h-28.36v-116.79ZM355.61,303.41h6.84l17.35-26.03h32.7l-37.71,44.88-19.19,23.02v-41.88ZM361.78,324.44l18.52-19.19,32.7,55.56h-33.2l-18.02-36.37Z"/>
    <path class="cls-4" d="M476.99,358.47c-6.84-2.89-12.07-6.92-15.69-12.1-3.62-5.17-5.42-11.15-5.42-17.94v-2.17h31.37v2.5c0,3.11,1.28,5.62,3.84,7.51,2.56,1.89,5.78,2.84,9.68,2.84,2.11,0,4.14-.39,6.09-1.17,1.95-.78,3.45-1.75,4.5-2.92,1.06-1.17,1.59-2.64,1.59-4.42,0-2.11-.81-3.86-2.42-5.26-1.61-1.39-3.62-2.58-6-3.59-2.39-1-5.92-2.22-10.59-3.67-7.57-2.45-13.82-4.84-18.77-7.17-4.95-2.34-9.26-5.92-12.93-10.76-3.67-4.84-5.51-11.09-5.51-18.77,0-7.23,1.78-13.4,5.34-18.52,3.56-5.12,8.62-9.04,15.18-11.76,6.56-2.72,14.02-4.09,22.36-4.09,8.78,0,16.37,1.36,22.77,4.09,6.4,2.73,11.37,6.54,14.93,11.43,3.56,4.9,5.34,10.57,5.34,17.02v2.17h-31.03v-2.17c0-2.67-1.11-4.81-3.34-6.42-2.23-1.61-5.12-2.42-8.68-2.42-2.34,0-4.34.33-6.01,1-1.67.67-2.98,1.59-3.92,2.75s-1.42,2.58-1.42,4.25c0,1.89.77,3.5,2.34,4.84,1.55,1.34,3.56,2.5,6,3.5,2.44,1,5.9,2.17,10.35,3.5,7.56,2.11,13.85,4.34,18.85,6.67,5,2.34,9.34,5.95,13.01,10.85,3.67,4.9,5.51,11.24,5.51,19.02,0,7.34-1.78,13.68-5.34,19.02-3.56,5.34-8.65,9.46-15.27,12.35-6.62,2.89-14.32,4.34-23.11,4.34s-16.77-1.45-23.61-4.34Z"/>
    <path class="cls-4" d="M559.16,244.02h28.36v116.79h-28.36v-116.79ZM582.68,303.41h6.84l17.35-26.03h32.7l-37.71,44.88-19.19,23.02v-41.88ZM588.85,324.44l18.52-19.19,32.7,55.56h-33.2l-18.02-36.37Z"/>
    <path class="cls-4" d="M653.42,367.48h12.01c2.23,0,4.06-.44,5.51-1.33,1.45-.89,2.51-2.34,3.17-4.34l1.34-4h-7.51l-23.69-80.42h31.2l10.18,51.55h2.83l10.01-51.55h30.03l-27.86,93.27c-2,6.78-5.29,11.85-9.84,15.18-4.56,3.34-10.62,5-18.19,5h-19.19v-23.36Z"/>
  </g>
  <g>
    <path class="cls-4" d="M73.32,401.43h29.86v111.79h-29.86v-111.79ZM95.84,453.32h26.03c3.78,0,6.81-1.06,9.09-3.17,2.28-2.11,3.42-5,3.42-8.68,0-4-1.14-7.06-3.42-9.18-2.28-2.11-5.31-3.17-9.09-3.17h-26.03v-27.7h29.03c7.78,0,14.65,1.59,20.6,4.76,5.95,3.17,10.54,7.76,13.76,13.76,3.22,6,4.84,12.9,4.84,20.69s-1.62,14.9-4.84,21.02c-3.22,6.12-7.79,10.87-13.68,14.26-5.9,3.39-12.79,5.09-20.69,5.09h-29.03v-27.7ZM112.19,473.51l28.03-6.17,26.86,45.88h-35.2l-19.69-39.71Z"/>
    <path class="cls-4" d="M193.2,510.88c-5.84-2.89-10.35-7.01-13.51-12.35-3.17-5.34-4.76-11.45-4.76-18.35v-17.35c0-6.9,1.59-13.01,4.76-18.35,3.17-5.34,7.62-9.45,13.35-12.35,5.73-2.89,12.32-4.34,19.77-4.34s14.21,1.48,19.94,4.42c5.73,2.95,10.18,7.15,13.35,12.6,3.17,5.45,4.76,11.68,4.76,18.69v16.35h-54.72v-17.35h29.53l-3.34,3.67v-7.34c0-2.78-.86-5-2.59-6.67-1.72-1.67-4.03-2.5-6.92-2.5s-5.2.81-6.92,2.42-2.58,3.86-2.58,6.75v25.36c0,2.78.92,5.01,2.75,6.67,1.83,1.67,4.31,2.51,7.42,2.51,2.78,0,4.95-.56,6.51-1.67,1.55-1.11,2.34-2.61,2.34-4.5v-.67h28.53v.5c0,5.56-1.59,10.49-4.76,14.77-3.17,4.28-7.59,7.59-13.26,9.93-5.68,2.34-12.18,3.51-19.52,3.51s-14.27-1.45-20.11-4.34Z"/>
    <path class="cls-4" d="M279.03,511.88c-5.56-2.23-9.79-5.34-12.68-9.34-2.89-4.01-4.34-8.62-4.34-13.85v-1.33h27.86v1.5c0,1.89.75,3.45,2.25,4.67,1.5,1.23,3.53,1.83,6.09,1.83,1.78,0,3.26-.19,4.42-.58,1.17-.39,2.08-.97,2.75-1.75.67-.78,1-1.67,1-2.67,0-1.33-.64-2.5-1.92-3.5s-2.92-1.89-4.92-2.67c-2-.78-4.5-1.5-7.51-2.17-6-1.78-10.98-3.53-14.93-5.25-3.95-1.72-7.37-4.42-10.26-8.09-2.9-3.67-4.34-8.4-4.34-14.18,0-8.45,3.17-15.01,9.51-19.69,6.34-4.67,14.79-7.01,25.36-7.01,7.12,0,13.37,1.03,18.77,3.09,5.39,2.06,9.51,4.98,12.35,8.76,2.84,3.78,4.26,8.17,4.26,13.18v1.67h-27.53v-1.33c0-1.67-.67-3-2-4.01-1.34-1-3.17-1.5-5.51-1.5s-3.98.42-5.26,1.25c-1.28.83-1.92,1.92-1.92,3.25,0,1.45.56,2.61,1.67,3.5,1.11.89,2.72,1.7,4.84,2.42,2.11.73,4.61,1.48,7.51,2.25,5.78,1.45,10.7,3.03,14.77,4.75,4.06,1.73,7.56,4.4,10.51,8.01,2.95,3.62,4.42,8.42,4.42,14.43,0,5.68-1.45,10.59-4.34,14.77-2.9,4.17-7.04,7.37-12.43,9.6-5.4,2.22-11.71,3.34-18.94,3.34s-13.96-1.11-19.52-3.34Z"/>
    <path class="cls-4" d="M363.21,510.88c-5.84-2.89-10.35-7.01-13.51-12.35-3.17-5.34-4.76-11.45-4.76-18.35v-17.35c0-6.9,1.59-13.01,4.76-18.35,3.17-5.34,7.62-9.45,13.35-12.35,5.73-2.89,12.32-4.34,19.77-4.34s14.21,1.48,19.94,4.42c5.73,2.95,10.18,7.15,13.35,12.6,3.17,5.45,4.76,11.68,4.76,18.69v16.35h-54.72v-17.35h29.53l-3.34,3.67v-7.34c0-2.78-.86-5-2.59-6.67-1.72-1.67-4.03-2.5-6.92-2.5s-5.2.81-6.92,2.42-2.58,3.86-2.58,6.75v25.36c0,2.78.92,5.01,2.75,6.67,1.83,1.67,4.31,2.51,7.42,2.51,2.78,0,4.95-.56,6.51-1.67,1.55-1.11,2.34-2.61,2.34-4.5v-.67h28.53v.5c0,5.56-1.59,10.49-4.76,14.77-3.17,4.28-7.59,7.59-13.26,9.93-5.68,2.34-12.18,3.51-19.52,3.51s-14.27-1.45-20.11-4.34Z"/>
    <path class="cls-4" d="M436.03,429.79h28.36v83.42h-28.36v-83.42ZM459.72,443.14h6.34c1.22-5.01,3.39-8.82,6.5-11.43,3.11-2.61,7.01-3.92,11.68-3.92h3.34v29.03h-4.67c-3.78,0-7.06.67-9.84,2-2.78,1.33-4.92,3.28-6.42,5.84-1.5,2.56-2.25,5.51-2.25,8.84h-4.67v-30.37Z"/>
    <path class="cls-4" d="M495.26,429.79h31.2l10.34,51.39h1.67l10.35-51.39h30.2l-25.02,83.42h-34.04l-24.69-83.42Z"/>
    <path class="cls-4" d="M602.46,510.88c-5.84-2.89-10.35-7.01-13.51-12.35-3.17-5.34-4.76-11.45-4.76-18.35v-17.35c0-6.9,1.59-13.01,4.76-18.35,3.17-5.34,7.62-9.45,13.35-12.35,5.73-2.89,12.32-4.34,19.77-4.34s14.21,1.48,19.94,4.42c5.73,2.95,10.18,7.15,13.35,12.6,3.17,5.45,4.76,11.68,4.76,18.69v16.35h-54.72v-17.35h29.53l-3.34,3.67v-7.34c0-2.78-.86-5-2.59-6.67-1.72-1.67-4.03-2.5-6.92-2.5s-5.2.81-6.92,2.42c-1.72,1.61-2.58,3.86-2.58,6.75v25.36c0,2.78.92,5.01,2.75,6.67,1.83,1.67,4.31,2.51,7.42,2.51,2.78,0,4.95-.56,6.51-1.67,1.55-1.11,2.34-2.61,2.34-4.5v-.67h28.53v.5c0,5.56-1.59,10.49-4.76,14.77-3.17,4.28-7.59,7.59-13.26,9.93-5.68,2.34-12.18,3.51-19.52,3.51s-14.27-1.45-20.11-4.34Z"/>
  </g>
</svg>