<?xml version="1.0" encoding="UTF-8"?>
<svg id="Layer_1" data-name="Layer 1" xmlns="http://www.w3.org/2000/svg" viewBox="0 0 841.89 595.28">
  <defs>
    <style>
      .cls-1 {
        fill: #102e42;
      }

      .cls-2 {
        fill: #a55c3e;
      }

      .cls-3 {
        fill: #572618;
      }

      .cls-4 {
        fill: #303b59;
      }
    </style>
  </defs>
  <g>
    <path class="cls-3" d="M111.11,340.47c10.97,2.61,23.85,3.97,33.91,8.4h42.31v-51.64h-105.45c11.99,11.6,14.23,39.67,29.24,43.24Z"/>
    <path class="cls-2" d="M161.74,370.15c2.04,16.36,13.93,29.21,24.12,30.36h0c.81,0,1.46-.65,1.46-1.46v-27.82c0-6.69,0-14.24,0-22.36h-42.31c8.71,3.84,15.31,10,16.72,21.28Z"/>
    <path class="cls-4" d="M13.56,271.41c.02,5.52.04,10.53.04,14.67,0,.97.92,1.66,1.86,1.4,23-6.32,31.13,6.47,52.9,4.82,5.71-.43,10.03,1.55,13.52,4.93h105.45v-51.64H13.56v25.82Z"/>
    <path class="cls-1" d="M13.56,231.21c.03,4.68.06,9.53.09,14.39h173.68v-50.18c0-.81-.65-1.46-1.46-1.46H15.02c-.81,0-1.46.65-1.46,1.46v35.79Z"/>
  </g>
  <g>
    <path d="M209.77,242.82c3.33,1.24,6.49,1.86,9.49,1.86,2.77,0,4.84-.56,6.23-1.7,1.38-1.13,2.08-2.46,2.08-3.98,0-1.24-.41-2.29-1.23-3.13s-1.85-1.55-3.09-2.12c-1.24-.56-3.05-1.24-5.42-2.03-.85-.17-1.53-.37-2.03-.59-3.45-1.19-6.4-2.47-8.85-3.86-2.46-1.38-4.49-3.25-6.1-5.59-1.61-2.34-2.41-5.27-2.41-8.77,0-3.9.99-7.24,2.97-10.04,1.98-2.8,4.6-4.9,7.88-6.31,3.28-1.41,6.81-2.12,10.59-2.12s7.43.54,10.59,1.61c3.16,1.07,5.9,2.51,8.22,4.32l-3.73,11.01c-2.26-1.58-4.76-2.87-7.5-3.86-2.74-.99-5.38-1.48-7.92-1.48-2.26,0-4.08.47-5.46,1.4-1.38.93-2.08,2.22-2.08,3.86,0,1.3.49,2.4,1.48,3.3.99.9,2.25,1.67,3.77,2.29,1.52.62,3.67,1.36,6.44,2.2,3.33,1.02,6.27,2.22,8.81,3.6,2.54,1.38,4.66,3.3,6.35,5.76,1.69,2.46,2.54,5.61,2.54,9.45s-.83,6.95-2.5,9.83c-1.67,2.88-4.21,5.17-7.62,6.86-3.42,1.69-7.58,2.54-12.5,2.54-4.46,0-8.57-.65-12.33-1.95-3.76-1.3-6.85-2.88-9.28-4.74l3.39-12.2c2.82,1.81,5.9,3.33,9.23,4.58Z"/>
    <path d="M279.12,216.89c3.3,1.86,5.89,4.43,7.75,7.71s2.8,6.95,2.8,11.01-.93,7.74-2.8,11.01-4.45,5.85-7.75,7.71c-3.3,1.86-6.99,2.8-11.06,2.8s-7.67-.93-10.97-2.8c-3.3-1.86-5.89-4.43-7.75-7.71-1.87-3.28-2.8-6.95-2.8-11.01s.93-7.74,2.8-11.01c1.86-3.28,4.45-5.85,7.75-7.71s6.96-2.8,10.97-2.8,7.75.93,11.06,2.8ZM263.78,226c-1.27.93-2.27,2.23-3.01,3.9s-1.1,3.52-1.1,5.55.37,3.88,1.1,5.55c.73,1.67,1.74,2.97,3.01,3.9,1.27.93,2.7,1.4,4.28,1.4s3.09-.47,4.36-1.4c1.27-.93,2.26-2.23,2.96-3.9.7-1.67,1.06-3.52,1.06-5.55s-.35-3.88-1.06-5.55c-.71-1.67-1.69-2.97-2.96-3.9-1.27-.93-2.73-1.4-4.36-1.4s-3.01.47-4.28,1.4Z"/>
    <path d="M319.36,255.61c-2.34,1.02-5.01,1.52-8.01,1.52-4.01,0-7.45-1.19-10.34-3.56-2.88-2.37-4.32-6.95-4.32-13.72v-24.57h12.79v22.79c0,2.83.47,4.87,1.4,6.14.93,1.27,2.44,1.91,4.53,1.91,1.36,0,2.67-.38,3.94-1.14,1.27-.76,2.44-1.74,3.52-2.92v-26.77h12.79v28.98l1.1,11.69-9.32.51-2.37-4.58c-1.47,1.47-3.38,2.71-5.72,3.73Z"/>
    <path d="M374.05,225.7h-31.09v-10.42h31.09v10.42ZM362.28,244.13c.85,1.27,2.17,1.91,3.98,1.91,1.98,0,4.52-.85,7.63-2.54l2.63,8.3c-1.64,1.47-3.67,2.68-6.1,3.64-2.43.96-5.06,1.44-7.88,1.44-4.69,0-8.23-1.37-10.63-4.11-2.4-2.74-3.6-6.74-3.6-11.99v-19.57l-1.19-1.78,6.01-18.55h7.88v37.87c0,2.32.42,4.11,1.27,5.38Z"/>
    <path d="M394.81,255.95h-12.71v-62.44h12.71v62.44ZM399.64,215.96c2.43-1.24,5.03-1.86,7.79-1.86,3.95,0,7.23,1.17,9.83,3.52,2.6,2.35,3.9,6.93,3.9,13.77v24.57h-12.71v-22.79c0-2.71-.52-4.73-1.57-6.06-1.05-1.33-2.53-1.99-4.45-1.99-1.35,0-2.71.38-4.07,1.14-1.36.76-2.54,1.74-3.56,2.92l-1.35-8.56c1.69-1.86,3.76-3.42,6.18-4.66Z"/>
    <path d="M454.07,227.23c-.42-1.19-1.12-2.13-2.08-2.84-.96-.71-2.12-1.06-3.47-1.06-1.19,0-2.32.38-3.39,1.14-1.07.76-1.95,1.91-2.63,3.43-.68,1.53-1.02,3.42-1.02,5.68,0,2.54.33,4.8.98,6.78.65,1.98,1.71,3.54,3.18,4.7,1.47,1.16,3.3,1.74,5.51,1.74,1.75,0,3.64-.34,5.68-1.02,2.03-.68,3.95-1.55,5.76-2.63l3.81,7.88c-1.81,1.69-4.28,3.11-7.41,4.24-3.13,1.13-6.68,1.69-10.63,1.69s-7.2-.93-10.25-2.8c-3.05-1.86-5.44-4.41-7.16-7.63-1.72-3.22-2.58-6.81-2.58-10.76s.82-7.82,2.46-11.1c1.64-3.28,4.05-5.86,7.24-7.75,3.19-1.89,6.96-2.84,11.31-2.84,3.61,0,6.88.96,9.79,2.88,2.91,1.92,5.04,4.74,6.4,8.47,1.35,3.73,1.52,8.16.51,13.3h-26.43l-.76-7.54h15.76c.06-1.47-.13-2.8-.55-3.98Z"/>
    <path d="M487.41,225.11v30.84h-12.71v-28.72l-1.1-11.95,10.84-.51,2.97,10.34ZM489.23,217.44c2.68-2.23,5.3-3.35,7.84-3.35,2.37,0,4.43.49,6.18,1.48,1.75.99,3.3,2.36,4.66,4.11l-6.95,9.66c-.73-.9-1.67-1.67-2.8-2.29-1.13-.62-2.34-.93-3.64-.93-2.03,0-4.08.9-6.14,2.71-2.06,1.81-3.91,4.01-5.55,6.61l-.85-9.83c2.15-3.22,4.56-5.94,7.24-8.18Z"/>
    <path d="M529.81,215.96c2.46-1.24,5.07-1.86,7.84-1.86,3.95,0,7.23,1.17,9.83,3.52,2.6,2.35,3.9,6.93,3.9,13.77v24.57h-12.71v-22.79c0-2.71-.52-4.73-1.57-6.06-1.05-1.33-2.53-1.99-4.45-1.99-1.35,0-2.71.38-4.07,1.14-1.35.76-2.54,1.74-3.56,2.92v26.77h-12.71v-28.98l-1.1-11.69,10.84-.51,1.61,5.85c1.64-1.86,3.69-3.42,6.14-4.66Z"/>
    <path d="M618.73,233.92h.34l-.51-5.25v-32.87h12.71v60.15h-16.01l-22.88-40.5h-.26l.51,5.25v35.24h-12.79v-60.15h17.37l21.52,38.13Z"/>
    <path d="M654.1,197.19c1.38,1.33,2.08,3.01,2.08,5.04s-.69,3.7-2.08,5c-1.38,1.3-3.18,1.95-5.38,1.95s-4-.65-5.38-1.95c-1.38-1.3-2.08-2.96-2.08-5s.69-3.71,2.08-5.04c1.38-1.33,3.18-1.99,5.38-1.99s4,.66,5.38,1.99ZM655.07,255.95h-12.71v-40.67h12.71v40.67Z"/>
    <path d="M674.81,240.62c-.85.9-1.27,1.78-1.27,2.63s.41,1.54,1.23,2.08c.82.54,1.82.8,3.01.8h11.95c4.97,0,8.75,1.29,11.35,3.86,2.6,2.57,3.9,6,3.9,10.29,0,3.44-.88,6.51-2.63,9.19-1.75,2.68-4.41,4.79-7.96,6.31-3.56,1.53-7.94,2.29-13.13,2.29-7.79,0-13.05-1.43-15.76-4.28-2.71-2.85-4.07-5.86-4.07-9.02s.93-6.16,2.8-8.64c1.86-2.48,4.15-4.43,6.86-5.85l7.03,3.73c-1.58.73-2.94,1.78-4.07,3.13-1.13,1.36-1.69,2.94-1.69,4.74,0,1.98.76,3.59,2.29,4.83,1.53,1.24,4.04,1.86,7.54,1.86,2.09,0,3.88-.25,5.38-.76,1.5-.51,2.65-1.27,3.47-2.29.82-1.02,1.23-2.26,1.23-3.73,0-1.86-.59-3.3-1.78-4.32-1.19-1.02-2.91-1.52-5.17-1.52h-10.51c-2.2,0-4.17-.42-5.89-1.27-1.72-.85-3.06-1.99-4.02-3.43-.96-1.44-1.44-2.98-1.44-4.62,0-2.37.92-4.49,2.75-6.35,1.83-1.86,4.08-3.36,6.73-4.49l5,2.29c-1.24.79-2.29,1.64-3.13,2.54ZM692.52,215.62c2.77,1.07,4.94,2.66,6.52,4.74,1.58,2.09,2.37,4.58,2.37,7.46s-.79,5.45-2.37,7.54c-1.58,2.09-3.77,3.7-6.57,4.83-2.8,1.13-6,1.7-9.62,1.7s-6.73-.54-9.53-1.61c-2.8-1.07-4.99-2.65-6.57-4.74-1.58-2.09-2.37-4.58-2.37-7.46s.8-5.46,2.41-7.58c1.61-2.12,3.82-3.73,6.65-4.83,2.82-1.1,6.04-1.65,9.66-1.65s6.64.54,9.4,1.61ZM686.67,233.29c1.07-.48,1.91-1.19,2.5-2.12s.89-2.02.89-3.26-.3-2.33-.89-3.26c-.59-.93-1.44-1.67-2.54-2.2-1.1-.54-2.33-.8-3.69-.8s-2.57.27-3.64.8-1.92,1.27-2.54,2.2c-.62.93-.93,2.02-.93,3.26s.31,2.33.93,3.26c.62.93,1.47,1.64,2.54,2.12,1.07.48,2.31.72,3.73.72s2.57-.24,3.64-.72ZM695.57,208.76c2.6-2.26,5.53-3.42,8.81-3.47l1.19,9.91c-2.37.06-4.65.64-6.82,1.74-2.18,1.1-3.91,2.56-5.21,4.36l-4.07-4.24c1.47-3.28,3.5-6.04,6.1-8.3Z"/>
    <path d="M723.53,255.95h-12.71v-62.44h12.71v62.44ZM728.36,215.96c2.43-1.24,5.03-1.86,7.79-1.86,3.95,0,7.23,1.17,9.83,3.52,2.6,2.35,3.9,6.93,3.9,13.77v24.57h-12.71v-22.79c0-2.71-.52-4.73-1.57-6.06-1.05-1.33-2.53-1.99-4.45-1.99-1.35,0-2.71.38-4.07,1.14-1.36.76-2.54,1.74-3.56,2.92l-1.35-8.56c1.69-1.86,3.76-3.42,6.18-4.66Z"/>
    <path d="M787.41,225.7h-31.09v-10.42h31.09v10.42ZM775.63,244.13c.85,1.27,2.17,1.91,3.98,1.91,1.98,0,4.52-.85,7.63-2.54l2.63,8.3c-1.64,1.47-3.67,2.68-6.1,3.64-2.43.96-5.06,1.44-7.88,1.44-4.69,0-8.23-1.37-10.63-4.11-2.4-2.74-3.6-6.74-3.6-11.99v-19.57l-1.19-1.78,6.01-18.55h7.88v37.87c0,2.32.42,4.11,1.27,5.38Z"/>
    <path d="M803.21,246.04c2.68.9,5.32,1.36,7.92,1.36,1.86,0,3.3-.27,4.32-.8,1.02-.54,1.52-1.28,1.52-2.25s-.49-1.68-1.48-2.16c-.99-.48-2.56-.92-4.7-1.31-.9-.17-1.6-.32-2.08-.47-.48-.14-1.17-.3-2.08-.47-3.67-.9-6.65-2.3-8.94-4.19-2.29-1.89-3.43-4.79-3.43-8.68,0-4.24,1.49-7.51,4.49-9.83,2.99-2.31,7.17-3.47,12.54-3.47,3.11,0,5.96.38,8.56,1.14,2.6.76,4.69,1.68,6.27,2.75l-3.22,8.81c-1.64-.9-3.5-1.68-5.59-2.33-2.09-.65-4.18-.97-6.27-.97-1.58,0-2.85.23-3.81.68-.96.45-1.44,1.16-1.44,2.12s.54,1.68,1.61,2.16c1.07.48,2.74.92,5,1.31.56.11,1.44.28,2.63.51,2.48.45,4.67,1.09,6.57,1.91s3.49,2.09,4.79,3.81c1.3,1.72,1.95,4.05,1.95,6.99,0,4.63-1.65,8.2-4.96,10.72-3.3,2.51-7.72,3.77-13.26,3.77-3.73,0-7.09-.55-10.08-1.65-2.99-1.1-5.4-2.44-7.2-4.02l3.3-8.73c2.03,1.3,4.39,2.4,7.07,3.3Z"/>
  </g>
  <g>
    <path d="M218.08,266.33c6.1,0,11.63,1.14,16.61,3.43,4.97,2.29,8.88,5.72,11.73,10.29,2.85,4.58,4.28,10.14,4.28,16.69s-1.48,12.16-4.45,16.82c-2.97,4.66-6.98,8.18-12.03,10.55-5.06,2.37-10.66,3.56-16.82,3.56-6.95,0-12.54-.2-16.77-.59v-60.15c4.69-.39,10.51-.59,17.45-.59ZM219.35,314.37c4.91,0,8.99-1.45,12.24-4.36,3.25-2.91,4.87-7.33,4.87-13.26,0-3.95-.79-7.21-2.37-9.79-1.58-2.57-3.66-4.43-6.23-5.59-2.57-1.16-5.44-1.74-8.6-1.74-1.86,0-3.56.03-5.08.08v34.57c1.75.06,3.47.08,5.17.08Z"/>
    <path d="M262.43,288.02c1.38-.73,3.15-1.38,5.3-1.95,2.15-.56,4.52-.85,7.12-.85,5.93,0,10.46,1.61,13.6,4.83,3.14,3.22,4.7,7.68,4.7,13.39v12.96c.34,3.56.65,7.12.93,10.67l-10.85.59-1.44-4.15c-1.41,1.41-3.21,2.56-5.38,3.43-2.18.87-4.48,1.31-6.91,1.31s-4.82-.47-6.99-1.4c-2.17-.93-3.94-2.34-5.3-4.24-1.35-1.89-2.03-4.14-2.03-6.74,0-4.74,2.2-8.22,6.61-10.42,4.4-2.2,10.59-3.3,18.55-3.3,0-2.54-.71-4.35-2.12-5.42-1.41-1.07-3.14-1.61-5.17-1.61-1.58,0-3.21.31-4.87.93-1.67.62-3.24,1.38-4.7,2.29l-3.9-8.56c.51-.45,1.45-1.04,2.84-1.78ZM271.75,310.86c-2.18.88-3.26,2.22-3.26,4.02,0,1.24.45,2.19,1.35,2.84.9.65,2.03.97,3.39.97s2.67-.34,3.94-1.02c1.27-.68,2.33-1.55,3.18-2.63v-5.51c-3.56,0-6.43.44-8.6,1.31Z"/>
    <path d="M315.34,296.24v30.84h-12.71v-28.72l-1.1-11.95,10.84-.51,2.97,10.34ZM317.16,288.57c2.68-2.23,5.3-3.35,7.84-3.35,2.37,0,4.43.49,6.18,1.48,1.75.99,3.3,2.36,4.66,4.11l-6.95,9.66c-.73-.9-1.67-1.67-2.8-2.29-1.13-.62-2.34-.93-3.64-.93-2.03,0-4.08.9-6.14,2.71-2.06,1.81-3.91,4.01-5.55,6.61l-.85-9.83c2.15-3.22,4.56-5.94,7.24-8.18Z"/>
    <path d="M352.78,303.53h.09l14.4-17.11h14.83l-15.76,17.54,18.3,23.13h-16.52l-10.76-13.81-4.58,5.08v8.73h-12.71v-62.44h12.71v38.89Z"/>
    <path d="M416.41,313.95c3.33,1.24,6.49,1.86,9.49,1.86,2.77,0,4.84-.56,6.23-1.7,1.38-1.13,2.08-2.46,2.08-3.98,0-1.24-.41-2.29-1.23-3.13-.82-.85-1.85-1.55-3.09-2.12-1.24-.56-3.05-1.24-5.42-2.03-.85-.17-1.53-.37-2.03-.59-3.45-1.19-6.4-2.47-8.85-3.86-2.46-1.38-4.49-3.25-6.1-5.59-1.61-2.34-2.41-5.27-2.41-8.77,0-3.9.99-7.24,2.96-10.04s4.6-4.9,7.88-6.31c3.28-1.41,6.81-2.12,10.59-2.12s7.43.54,10.59,1.61c3.16,1.07,5.9,2.51,8.22,4.32l-3.73,11.01c-2.26-1.58-4.76-2.87-7.5-3.86-2.74-.99-5.38-1.48-7.92-1.48-2.26,0-4.08.47-5.46,1.4-1.39.93-2.08,2.22-2.08,3.86,0,1.3.49,2.4,1.48,3.3.99.9,2.24,1.67,3.77,2.29,1.53.62,3.67,1.36,6.44,2.2,3.33,1.02,6.27,2.22,8.81,3.6,2.54,1.38,4.66,3.3,6.36,5.76,1.69,2.46,2.54,5.61,2.54,9.45s-.83,6.95-2.5,9.83c-1.67,2.88-4.21,5.17-7.62,6.86-3.42,1.69-7.58,2.54-12.5,2.54-4.46,0-8.57-.65-12.33-1.95-3.76-1.3-6.85-2.88-9.28-4.74l3.39-12.2c2.82,1.81,5.9,3.33,9.24,4.58Z"/>
    <path d="M468.09,303.53h.09l14.4-17.11h14.83l-15.76,17.54,18.3,23.13h-16.52l-10.76-13.81-4.58,5.08v8.73h-12.71v-62.44h12.71v38.89Z"/>
    <path d="M520.96,306.66l1.36,4.07h.25l1.19-3.98,8.13-20.33h13.05l-20.25,46.34c-2.2,4.97-4.8,8.87-7.79,11.69-2.99,2.82-6.55,4.24-10.67,4.24-1.41,0-2.85-.25-4.32-.76-1.47-.51-2.63-1.02-3.47-1.53l2.71-10.17c1.64.68,3.16,1.02,4.57,1.02,1.58,0,3.06-.56,4.45-1.69s2.7-3.16,3.94-6.1l1.69-3.98-17.54-39.06h14.66l8.05,20.25Z"/>
  </g>
  <g>
    <path d="M219.43,339.41c8.13,0,14.03,1.62,17.71,4.87,3.67,3.25,5.51,7.92,5.51,14.02,0,3.5-.74,6.54-2.2,9.11-1.47,2.57-3.56,4.65-6.27,6.23l16.77,26.94h-15.93l-13.22-22.37c-1.52.17-2.99.26-4.41.26h-3.22v22.11h-13.56v-60.15c6.61-.68,12.88-1.02,18.81-1.02ZM226.42,364.96c1.61-1.61,2.41-3.91,2.41-6.91,0-2.54-.82-4.55-2.46-6.02-1.64-1.47-3.98-2.2-7.03-2.2-1.02,0-2.74.08-5.17.26v17.28h5.17c3.11,0,5.46-.8,7.07-2.41Z"/>
    <path d="M277,371.86c-.42-1.19-1.12-2.13-2.08-2.84-.96-.7-2.12-1.06-3.47-1.06-1.19,0-2.32.38-3.39,1.14-1.07.76-1.95,1.91-2.63,3.43s-1.02,3.42-1.02,5.68c0,2.54.33,4.8.98,6.78.65,1.98,1.71,3.55,3.18,4.7,1.47,1.16,3.3,1.74,5.51,1.74,1.75,0,3.64-.34,5.68-1.02s3.95-1.55,5.76-2.63l3.81,7.88c-1.81,1.69-4.28,3.11-7.41,4.24-3.13,1.13-6.68,1.69-10.63,1.69s-7.2-.93-10.25-2.8c-3.05-1.86-5.44-4.41-7.16-7.63-1.72-3.22-2.58-6.81-2.58-10.76s.82-7.82,2.46-11.1c1.64-3.28,4.05-5.86,7.24-7.75,3.19-1.89,6.96-2.84,11.31-2.84,3.61,0,6.88.96,9.79,2.88,2.91,1.92,5.04,4.75,6.4,8.47,1.35,3.73,1.52,8.16.51,13.3h-26.43l-.76-7.54h15.76c.06-1.47-.13-2.8-.55-3.98Z"/>
    <path d="M305.21,390.67c2.68.9,5.32,1.36,7.92,1.36,1.86,0,3.3-.27,4.32-.8,1.02-.54,1.52-1.28,1.52-2.25s-.49-1.68-1.48-2.16c-.99-.48-2.56-.92-4.7-1.31-.9-.17-1.6-.32-2.08-.47-.48-.14-1.17-.3-2.08-.47-3.67-.9-6.65-2.3-8.94-4.2-2.29-1.89-3.43-4.79-3.43-8.68,0-4.24,1.49-7.51,4.49-9.83,2.99-2.31,7.17-3.47,12.54-3.47,3.11,0,5.96.38,8.56,1.14s4.69,1.68,6.27,2.75l-3.22,8.81c-1.64-.9-3.5-1.68-5.59-2.33-2.09-.65-4.18-.98-6.27-.98-1.58,0-2.85.23-3.81.68-.96.45-1.44,1.16-1.44,2.12s.54,1.68,1.61,2.16c1.07.48,2.74.92,5,1.31.56.11,1.44.28,2.63.51,2.48.45,4.67,1.09,6.57,1.91s3.49,2.09,4.79,3.81c1.3,1.72,1.95,4.05,1.95,6.99,0,4.63-1.65,8.2-4.96,10.72-3.3,2.51-7.72,3.77-13.26,3.77-3.73,0-7.09-.55-10.08-1.65-2.99-1.1-5.4-2.44-7.2-4.02l3.3-8.73c2.03,1.3,4.39,2.4,7.07,3.3Z"/>
    <path d="M361.04,371.86c-.42-1.19-1.12-2.13-2.08-2.84-.96-.7-2.12-1.06-3.47-1.06-1.19,0-2.32.38-3.39,1.14-1.07.76-1.95,1.91-2.63,3.43s-1.02,3.42-1.02,5.68c0,2.54.33,4.8.98,6.78.65,1.98,1.71,3.55,3.18,4.7,1.47,1.16,3.3,1.74,5.51,1.74,1.75,0,3.64-.34,5.68-1.02s3.95-1.55,5.76-2.63l3.81,7.88c-1.81,1.69-4.28,3.11-7.41,4.24-3.13,1.13-6.68,1.69-10.63,1.69s-7.2-.93-10.25-2.8c-3.05-1.86-5.44-4.41-7.16-7.63-1.72-3.22-2.58-6.81-2.58-10.76s.82-7.82,2.46-11.1c1.64-3.28,4.05-5.86,7.24-7.75,3.19-1.89,6.96-2.84,11.31-2.84,3.61,0,6.88.96,9.79,2.88,2.91,1.92,5.04,4.75,6.4,8.47,1.35,3.73,1.52,8.16.51,13.3h-26.43l-.76-7.54h15.76c.06-1.47-.13-2.8-.55-3.98Z"/>
    <path d="M394.38,369.74v30.84h-12.71v-28.72l-1.1-11.95,10.84-.51,2.97,10.34ZM396.2,362.07c2.68-2.23,5.3-3.35,7.84-3.35,2.37,0,4.43.49,6.18,1.48,1.75.99,3.3,2.36,4.66,4.11l-6.95,9.66c-.73-.9-1.67-1.67-2.8-2.29-1.13-.62-2.34-.93-3.64-.93-2.03,0-4.08.9-6.14,2.71-2.06,1.81-3.91,4.01-5.55,6.61l-.85-9.83c2.15-3.22,4.56-5.94,7.24-8.18Z"/>
    <path d="M436.23,380.25l1.1,3.47h.17l1.02-3.47,8.05-20.33h13.3l-18.3,40.67h-9.32l-18.38-40.67h14.4l7.96,20.33Z"/>
    <path d="M486.6,371.86c-.42-1.19-1.12-2.13-2.08-2.84-.96-.7-2.12-1.06-3.47-1.06-1.19,0-2.32.38-3.39,1.14-1.07.76-1.95,1.91-2.63,3.43s-1.02,3.42-1.02,5.68c0,2.54.33,4.8.98,6.78.65,1.98,1.71,3.55,3.18,4.7,1.47,1.16,3.3,1.74,5.51,1.74,1.75,0,3.64-.34,5.68-1.02s3.95-1.55,5.76-2.63l3.81,7.88c-1.81,1.69-4.28,3.11-7.41,4.24-3.13,1.13-6.68,1.69-10.63,1.69s-7.2-.93-10.25-2.8c-3.05-1.86-5.44-4.41-7.16-7.63-1.72-3.22-2.58-6.81-2.58-10.76s.82-7.82,2.46-11.1c1.64-3.28,4.05-5.86,7.24-7.75,3.19-1.89,6.96-2.84,11.31-2.84,3.61,0,6.88.96,9.79,2.88,2.91,1.92,5.04,4.75,6.4,8.47,1.35,3.73,1.52,8.16.51,13.3h-26.43l-.76-7.54h15.76c.06-1.47-.13-2.8-.55-3.98Z"/>
  </g>
</svg>